<?xml version="1.0" encoding="utf-8"?>
<!-- Generator: Adobe Illustrator 24.1.2, SVG Export Plug-In . SVG Version: 6.00 Build 0)  -->
<svg version="1.1" id="Layer_1" xmlns="http://www.w3.org/2000/svg" xmlns:xlink="http://www.w3.org/1999/xlink" x="0px" y="0px"
	 viewBox="0 0 986.2 384" style="enable-background:new 0 0 986.2 384;" xml:space="preserve">
<style type="text/css">
	.st0{clip-path:url(#SVGID_2_);}
	.st1{opacity:0.6;fill:#E8E8E8;enable-background:new    ;}
	.st2{opacity:0.6;}
	.st3{fill-opacity:0.4;}
	.st4{fill:url(#SVGID_3_);}
	.st5{fill:#00C3E6;}
	.st6{fill:#FFFFFF;}
	.st7{fill:url(#SVGID_4_);}
	.st8{fill:#4B3AD1;}
	.st9{fill:url(#SVGID_5_);}
	.st10{fill:#FFAA00;}
</style>
<g id="Layer_2_1_">
	<g id="Layer_1-2">
		<g>
			<g>
				<defs>
					<rect id="SVGID_1_" x="-4.8" y="-46.8" width="983" height="490.8"/>
				</defs>
				<clipPath id="SVGID_2_">
					<use xlink:href="#SVGID_1_"  style="overflow:visible;"/>
				</clipPath>
				<g class="st0">
					<path class="st1" d="M89.5,83.5c2,0,2.2,0.5,3.9,0s6.6-2.8,8.3-3.1c1.7-0.3,2.8,0.1,0.3,1.1s-7.4,3.1-6.6,2.9s3.4-0.9,7-2.1
						s3.2-0.7,4.1-1.9l1.4-1.9c0,0,5.6,4.1,6.2,4.3s0.7,0,1-0.5s0.9-1.2,1.7-1s0.1,1.2,0.6,1.4c0.9,0.1,1.9-0.1,2.8-0.4
						c1.5-0.4,0.7-1.1,0.7-1.1s-0.2,0,1.6-0.1c1.7-0.1,7.1,1.3,8.7,1.8s6.4,0.8,7.8,1.1s1.9-0.6,3.8,0.2s3.3,1.7,1.9,2.2
						s-4.9,0.9-3.1,1.2c2.3,0.4,4.7,0.7,7.1,0.7c2.6,0,7.3-0.7,8.7-0.7s2.3,0.6,3.7,2.3c0.8,1.1,1.8,1.9,3,2.4
						c0.5,0.1-0.5-0.8-0.2-1.6c0.1-1-0.1-2-0.6-2.9c-0.3-0.5,0-0.8-0.6-1.6s-1.7-0.6,0.2-1.3s3.2-1.6,5.6-1.4s2.9,2.3,4.9,2.4
						s2.4,0.7,5.8,0.9s2,0,5.8,0.2s2.4-0.3,3.2-1.7c0.4-1,1.5-1.7,2.6-1.6c0.9,0.1,4.1,0.4,4.1,0.7s-1.4,1.8-0.7,2.5
						c1.1,0.8,2.2,1.4,3.4,1.9c0,0-0.6-1.7-0.6-1.9s-0.2-1.5,0.2-1.8s2.7,0.1,4.1-1.9s-1-1.9-1-1.9s-0.9,0-0.4-0.8
						c0.4-0.8,3-1.3,3-1.3s0.2,0.4-0.2-0.3s-2-0.5-3.8-0.6s-3-0.3-3.4-1.3c-0.3-1.6-0.5-3.3-0.4-4.9c0-1.6,1.8-1,2.1-1.9
						c0.2-2,0-4.1-0.5-6c-0.4-0.9,0.6-2.8,0.9-4s2-0.7,2-0.7c-0.3-0.4,0.5-1.6,2.9-2.1c2.3-0.3,4.6-0.3,6.9,0c0,0-0.4,0-1.5,1.1
						s-0.4,2.9-2.1,4.2s-5.9,0.9-5.9,0.9s1.3,2.1,0.8,2.8c-0.4,0.6-0.7,1.3-0.9,2.1c0,0,3.8,0.7,3.9,2.4s2.1,2,2.5,3.5
						s-1.8,2.9-1.4,3.1c0.6,0.3,1.3,0.5,2,0.4c1.4,0,3.2,0.2,3.2,0.2c-0.4,0.5-0.5,1.2-0.1,1.6c0.7,0.8,0.2,1.4,0.2,2.3
						s0.8,1.7,1.1,1.5c0.9-1,1.6-2.2,2.1-3.5c0.3-1,0.6-1.6,1.2-1.6c1.2,0.4,2.2,1,3,1.9c0.2,0.5,0.4,1.2-0.8,2.6s-1.1,2,0,2.5
						c1,0.4,2,0.8,3,1c1.9,0.6,1.5,0.6,2.7,0.3s-0.5-2.3-0.4-2.4s2.8-0.3,2.2-1.3s-1.2-1.6,0-2.1s2.1-1,2.1-1
						c-0.7-0.7-1.2-1.6-1.6-2.5c-0.9-1.8,0.8-1.3,4.2-1.1c3.4,0.2,3.6,1,5.4,1.7s0.7,0.9,1.3,2s-1.5,1.2-1.5,1.2s-1.4,0.2-1.1,1
						c0.5,1.1,1.2,2.1,2,3.1c1,1.3-0.3,2.1-1.8,3.2c-1.6,0.9-3.4,1.4-5.2,1.4s-2.6,0.6-2.8,0.2s-1-0.7-2-0.6s-3.3,0.8-2.5,1
						s2.9,0.2,2,1.3s-1.6,1.2-3.4,1s-3.4-0.1-4.5-0.2l-6.6-0.3c2.2,0.9,4.4,1.7,6.7,2.3c2,0.4,4,0.5,6.1,0.3c0,0-1.2,1.6-2.6,3.3
						s-2.8,0.9-4,1s-1.9,0.8-4.1,1s-6.9-0.4-6.2-0.2c0.7,0.4,1.5,0.7,2.3,0.8c1.1,0,2.2,0.4,3.2,0.9c1.1,0.7-0.7,0.8-2.2,1
						c-1,0-1.9,0.3-2.6,1c-0.7,0.7-3.2,3.2-4,4c-1,1-1.6,2.3-1.8,3.7c-0.3,1.6-2.2,3.4-1.4,3.8s4,0.4,5.3,1s2.8,3.4,3.8,4.5
						s1.8,1.9,2.9,1.1s3.3-0.6,5.4-0.1c2.7,0.9,5.2,2.1,7.6,3.5c1.3,0.9,3.6,0.8,6.2,1s2.9,1,2.9,1s2.7,0.1,1.6,0.9
						c-1.1,0.8-1.4,0-0.3,1.4c0.9,1.2,1.2,2.7,0.8,4.1c-0.3,0.9,3.6,0.5,5.2,1.1s1.7,3.5,2.6,3.1s2.2-1,2.4-1.7c0.1-1,0-2-0.2-3
						c-0.2-1.3-0.6-3.6-1.5-4.5s1.6-1.3,1.2-1.7s-0.3-1.2,1.4-1.5s1.8,0,2.7-0.5s1.1-2.9,1.2-3.7c0.1-1.2-0.2-2.3-0.7-3.4
						c-0.8-1.2-1.6-2.3-2.6-3.4c-0.6-0.5-1.4-0.6,0.3-2.1s0.7-1.2,0.4-1.6c-0.4-0.8-0.7-1.7-0.9-2.6c-0.3-1,0.7-2.1,0.1-3.5
						s-1.2-1.1-1.1-1.4s3.9-0.2,6.7,0c1.6,0.1,3.2,0,4.7-0.2c1.3,0.2,2.6,0.6,3.8,1.3c1.6,0.7,2.2,0.5,3,1.4
						c0.6,0.9,1.7,1.4,2.9,1.3c1.2,0,2.3,0.2,3.4,0.5c-0.7,0.4-1.2,1.2-1,2c0,1.1,0,2.2-0.2,3.3c0,0.6,0.5,0.7,1.2,0.7
						s2.8,1.4,4.9,1.9s2.7,0.4,3.4-0.8s0.8-1.1,1.7-1.2s1.1,0.1,1.5-0.1s-0.6-0.8-0.4-1.6c0.5-1.1,1.3-2,2.4-2.6
						c1-0.6,1.6,0.6,2.5,1.8s3.8,4.9,4.6,6.2s1.9,1.3,0.9,2.5s-1.5,1.7,0.1,2.2s3,1.4,2.8,2.3s-0.5,0.9,0.1,1.1s2.4-0.5,3.8,0
						c1.4,0.3,2.7,0.8,4,1.5c1,0.7,0.9,0.9-0.5,1.3c-1.2,0.3-2.3,0.6-3.4,1c-0.7,0.3-1.8,0.9-1.7,1.3s-0.3,1.2,0.8,0.6
						c1.3-0.7,2.7-1.1,4.1-1.4c1.3-0.3,0.3,0,1.5-0.1s2.3,0.4,3.9,0.7s1.2,1,0.8,1.7s-0.8,1.3-0.1,2s-0.3,1.4-1.7,2.3
						s-2.4,1-4.7,1.2s-3.4,1.2-5,2.2s-2.4,0.8-4.7,0.9s-1.4-0.8-2.1-0.6c-1,0.4-2,0.7-3.1,0.9c-1.5,0.1-6.5,0.2-8.4,0.6
						s-1.3,1.3-1.8,2.1s-1.2,0.4-2.7,0.8s-3.2,1.9-4.8,3.9c-1.1,1.3-2.5,2.5-4,3.3c1.4-0.5,2.8-1.2,4-2.1c1.1-1,6-3.4,7.5-4.1
						s4.7-1.8,5.4-1.7s2.6,1.2,2.6,1.7s-0.6,1-1.9,1.9s-3.2,0-3,0.4c0.5,0.7,1.3,1.2,2.1,1.4c1,0.2,1,1.1,1,1.5s-0.6,1,1.8,2.5
						c1.7,1.1,3.8,1.6,5.8,1.4c1.8-0.1,0.8,0.4,1.6,0.4s0.9-1,1.1-1.8s0.6-1.4,1.3-1.9c0.6-0.3,1.1-1,1.3,0.2
						c0.1,1.3-0.5,2.6-1.6,3.3c-0.9,0.4-0.7,0.9-0.7,1.2s-1,0.4-3.5,1.4s-3.3,1.2-3.7,1.1c-0.9,0-1.8,0.3-2.6,0.9
						c-1.2,0.8-2.5,1.8-3.4,1.8s-1.6-0.3-0.4-1.2s1.6-2.1,2.8-2.5c0.9-0.3,1.8-0.4,2.8-0.4s0.5-0.4,1.3-0.9s-0.6-0.3-2-0.4
						s-0.3-1-0.3-1l-1.4,0.5c-0.9,0.3-1.8,0.6-2.7,0.9c-0.6,0-0.4,0.3-0.6,0.5c-0.7,0.2-1.4,0.2-2.2,0.3c-0.6,0.9-1.6,1.5-2.6,1.7
						c-1.5,0.2-0.5,0.1-1.6,0.5s-0.9-0.4-1.2-0.2c-0.5,0.4-1.1,0.8-1.7,1.1c-1.2,0.7-2,0.9-2.8,3.3s0.2,3.3,0.1,3.6s-1.6-0.2-2,0
						c-0.8,0.7-1.7,1.2-2.8,1.5c-1.3,0.3-3.9,0.7-4.5,1.2s-0.6,1.1-0.9,2c-0.5,1.1-1.1,2.1-1.8,3.1c0.2-0.6-0.1-1.3-0.7-1.5
						c-1.1-0.6-0.9-1.2-0.9-1.2c-0.1,0.6-0.1,1.2,0.1,1.8c0.4,0.9,1.2,1.8,0.8,2.8c-0.3,1-1,1.9-1.9,2.5c-0.8,0.4,0.2-0.7,0.2-1.4
						s-0.6-0.9-0.9-1.2s-0.4-1.4,0.3-2.8s-0.6-0.5-1.3,0.4s-1.2,2.6-0.1,3.6s-0.7,1,0,2.5s-0.9,2.3-0.6,2.6s1.2-0.1,1.6,0.7
						s-0.8,0.4-1.2,0.6s-0.2,0.5,0,0.9s0.7,0.2,0.5,0.3c-0.5,0.4-1.1,0.7-1.8,0.9c-1,0.2-1.1-0.1-1.8,0.4s-1.1,1-1.8,1.6
						s-1.2,0.4-1.9,0.8s-1,0.8-1.9,1.3c-1.4,0.7-2.7,1.5-3.9,2.4c-1.1,1-0.8,1.3-1.3,3s1.3,4.6,2.5,7.3s1.6,2,1.5,2.9
						c-0.2,1-0.7,1.9-1.5,2.5s-1.3-0.4-2.5-1s-0.2-1-1.4-2.3c-0.7-0.7-1.2-1.6-1.2-2.6c-0.1-1.1-0.4-2.2-0.9-3.3
						c-0.7-1.4-2.3-2.1-3.8-1.8c-1.9,0.5-1.4,0.3-2.5,0s-3.8-1-5.2-0.5s-5.8-0.2-6.8,0s-1.6,0.2-1.6,0.7s-0.4,0.5,1.2,0.8
						s1.4,0.7,1.3,1.2s-1.3-0.3-2-0.4s-1.2,0.4-2.4,0.4s-1.3-0.8-2.3-0.9c-0.8,0-1.6-0.1-2.4-0.3c-1.1-0.4-2.2-0.6-3.4-0.7
						c-1.1,0.1-5.4,2.1-7.5,3.2s-3.6,2.1-4.1,3s-0.5,0.9,1.1,2.2s0.9,1.1,0.6,1.8s-1.3,1.6-2.4,3.5s-0.5,2.8,0.9,4.6
						c1,1.5,2.3,2.8,3.8,3.9c0.9,0.8,1.8,1.4,2.9,1.9c0.6,0.1,1.1,0.4,1.6,0.7c0.4,0.3,0.3,0.5,1.8,0.2c1.2-0.3,2.5-0.6,3.7-0.7
						c0.9-0.1,1.8,0.1,2.7,0.4c0.6,0.4,0.7,0.2,0.7,0c0.2-0.4,0.4-0.8,0.6-1.2c0.7-0.7,1.3-1.5,1.8-2.5c0.2-0.8,0.2-2.4,1.6-2.5
						c2.4-0.3,4.7-0.5,7.1-0.5c2.7,0.1,1.5,1.1,0.8,2.1s-1,1.1-1,1.9s0.3,0.8-0.6,1.2s-0.3-0.3-0.7,0.2c-0.4,0.4-0.9,0.8-1.5,1
						c0.1-0.1,0.6,0.8,0.6,1.2s-0.1,0.6-0.1,1.7s-2.8,2.1-2.8,2.1c0.8,0.3,1.7,0.4,2.6,0.4c1.7-0.1,3.3,0.1,4.9,0.5
						c1.6,0.5,4.6-0.4,6.9,0.4s1.4,1.3,1.6,2c0.2,1.3,0.3,2.6,0.3,3.9c-0.2,0.6-1.2,2.2-1.8,3.4s1.6,2,3.6,3
						c1.5,0.7,3.1,1.3,4.8,1.6c1,0.2,2.9-1.1,6.5-1s4.7,2.3,4.7,2.3c0.5-1.2,1.1-2.2,2-3.1c1.6-1.8,1.7-2.3,3.8-2.9s2.9-0.7,6.4-1.5
						s2.9-0.2,4.7-0.1c3.5,0.2,6.9,0.6,10.3,1.3c4.2,0.9,10.7,1.2,13.2,1.9s3.6,2.8,6.1,4.5s5.8,3.2,7.1,4s8.9,1.5,10.6,2
						s4,2.4,4.1,3.6s1.8,1.7,4.1,2.4c2.3,0.7,3,1.5,4.6,3.6s1,2.7,3.1,3.2s16.5,3.3,20,4.3s8.1,3.7,9.4,4s3.4-0.3,4.3,0.1
						s-0.6,2.4,0.6,3.8s1.3,1.5,0.6,2.6s-3.6,3.6-4.7,4.9s-3.5,2.1-4.9,2.6s-2.6,0-1.4,1.1s0.1,2-1,2.9s0.1,0.8-0.2,3.9
						s0,6.4-0.5,7.7s-3.3-1.2-6.5,1.7s-4.1,5-6,5.3c-2.8,0.6-5.4,1.6-7.9,2.9c-1.2,0.7-2.1,1.7-2.8,2.9c-1,1.5-1.9,4.5-3,6.4
						s-2.7,2.9-6.5,5.4s-5.5,5-8,7s-1.8,1.5-2.4,1.9c-1.3,1-6.8-1.5-5.4-0.1c1,1-0.6,0,0.3,0.9s1.5,1.3-0.4,3s-4.1,1.4-5.6,1.6
						s-3.8-1.1-3.9-0.4c-0.3,1.2-1.1,2.2-2.2,2.8c-1.2,0.4-4.4,1.1-4.3,1.3c1.5,5,4.6,5.5,1.3,5.3c-9-0.6-2.6-2.1-8.8,7.2
						c-1,1.4-1.9,0.7-1.8,2.4s0,3,1.3,4s0.4,1-1.8,2.4s-2.3,1.2-4.3,3.4s-3.9,2.1-3.2,3.7s0.9,4.1,2.1,6.5s3.7,2,7.6,3.7
						s4.4,0.8,6.3,1.2s-1.4,0.5-4.8,1s-5.7,0.9-8.1,0.5s-8.1-2.7-10-3.7s-5-2.8-6.1-4.5s-1.9-3.5-3.4-5.9s-0.4-3.9,0.2-9.1
						s1.1-9.3,2.2-12.1s4.2-15.3,5.1-18.5s5-16.3,5.3-18.4c0.2-1.9,0.6-3.8,1.2-5.7c0.6-2.1,0.2-6.2,0.2-6.5s-0.2-0.4-1.1-2.3
						s-2.3-2.8-4.3-3.6s-4.1-1.9-5.7-2.7c-1.8-0.9-3.6-2-5.1-3.3c-1.6-1.4-3.1-4.3-3.9-5.5c-2-2.9-4.1-5.6-6.5-8.2
						c-2.7-2.9-2.9-2.9-4.2-5.9s1.2-3.1,1.7-4.8s2.1-3.4,3.8-5.8c1.8-2.4,4.1-3.1,5.4-5.2s0.3-2.1-0.2-4.2s0.2-1.7-0.7-2.9
						s-1.4-2.5-2.1-2.9c-0.8-0.5-1.9-0.5-2.7-0.1c-0.7,0.6-2,2.3-2.8,2.4s-1.1-0.5-1.6-0.9s-2.8-0.4-3.3-0.7
						c-0.8-0.3-1.6-0.5-2.5-0.7c-1.6-0.6-3.2-1.2-4.8-2c-1.1-0.7-1.9-1.9-2-3.2c0-1.4-1.7-1.9-5.4-3.8s-5.4-2.2-9.9-3
						s-6.4-3.1-7.9-3.7s-1.4-1.3-4.7-1.1s-7.4-1.1-10-1.8s-7.1-1.3-9-2.2s-5.3-1.2-6.7-3.4s-1.2-1.3-0.6-3.2s-3.3-3.5-5.6-5.3
						s-4.1-2.1-5.3-4.3s-2.9-2.1-5.3-3.7s-2.1-3.3-3.1-5.1s-7.3-4.4-7.3-4.4s1.7,3,2.4,4.2c1.2,2.2,2.7,4.3,4.3,6.3
						c1.9,2.2,3.6,2.7,5.4,4.9c1.8,2.2,0.1,3.5-0.6,2.6S151,209,151,208c-0.1-0.9-0.5-1.8-1.2-2.4c-0.6-0.8-3-1.7-5.4-3.1
						s-4.1-2-2.6-2s3.7,1,3.3,0.4s-3.1-2.6-4.4-4s-1.7-2.9-3-5.2s-6-4.5-8.3-4.7s-3-0.9-3.7-2.6s-1-3.5-2-4.8s-5.5-5.8-5.6-7.4
						s-1.4-6.6,0.2-9.4s1.2-8.9,1-10.1s-3.1-3.5-3.1-4.4s1.7-0.4,2.9-0.1s4,1.1,4,1.1c-1-1.3-2.1-2.6-3.3-3.7
						c-2.1-1.2-4.4-2-6.7-2.4c-1.7-0.3-3.8-0.7-4.7-1.7s-1.8-2.3-2.5-3.2s-3.3-1.9-4-2.8s-0.5-2.6-1.4-3.5c-0.9-1-2.3-1.4-3.6-1.1
						c-1.4,0.4-1.9-0.5-3-1.9s-3.6-2-4.3-2.1c-1.3-0.8-2.5-1.8-3.3-3.1c-0.2-0.6-4.1-3.6-5.3-4.3S67.3,116,67,116
						c-1.6,0.2-3.3,0.2-4.9,0.2c-1-0.2-4.2-2.2-5.9-2.6c-1.5-0.4-3,0.4-3.7,1.8c-0.8,1.3-4.7,3.6-6.9,4.6s-3.9,1.1-3.8,0.6
						c0.1-0.9,0.4-1.8,0.8-2.6c0.7-1.3,1.1-1.6,3.3-2.4s2.2-0.8,1.3-0.8s-1.5-0.1,0.2-0.8s2.5-0.9,2.4-1.5s-3.8,0.9-6.2,2.2
						c-2.3,1.2-4.3,2.8-5.9,4.8c-2.1,2.4,0.2,1.5-1.5,3.1s-7.8,4.8-9.5,6s-9,3.9-12,4.6s-4.1,0.9-5.6,1.7s-5,1.1-3.8,0.5
						s3.4-1.9,4.9-2.5s5.6-1.8,6.8-2.1c2.2-0.7,4.4-1.7,6.3-3.1c1.4-1.2,2.7-2.6,3.9-4.1c1.1-1.3,1.4-1.9-1-1.3
						c-1.9,0.4-4,0.4-5.9,0c-1.2-0.3-4.3,1-5.4,0.4s0.1-1.8-0.6-2.4s-3.2-0.2-4.8-0.4c-1.6-0.2-3.8-1.1-3.8-2.7s-1.6-3-0.7-4.2
						s2.2-1.5,3.6-2.2c2-0.8,4.1-1.3,6.2-1.6c1-0.1,1.9-0.5,2.6-1.1c0.7-0.5-1.7-2.4-1.7-2.4s0.4-0.2,1.4-0.6s0.2-1.3-1.4-1.2
						s-5.3,1.4-7.5,1.8s-5.3,0.2-5.2-0.5s0.6-1.1-0.2-1.6s-1.4-1.1-0.6-1.4S8,99.4,8,99.4c1.1,0.8,2.3,1.3,3.7,1.5
						c1.9,0.2,6-2.4,6-2.4c-2.6-1.1-2-1.4-2-1.4s-4.1-0.1-5.1-0.5c-0.8-0.4-1.3-1.1-1.5-2c-0.2-0.7-4.3-1.3-3.2-2.5s3.2-1.6,4.5-2.9
						c1.4-1.2,2.6-3.5,6.5-4.8s8.6-2.4,10.7-3.5s3,0,3.8,0.1s5.8-0.1,7.7-0.1s2.2,1.5,2.9,1.9s17.5,0.7,17.5,0.7s14.3,0.2,17.2,0.7
						s8.1,2.1,8.1,2.1C87.8,86.2,87.5,83.5,89.5,83.5z M281.5,22.1c0,0-1.4,4.2-7.2,5.4S258,32,257.5,32.2s0.6,2.5,2.1,3.7
						s2.8,1.9,4.1,3.1s3.5,1.1,5.3,2.2s3,0.8,7.8,0.8s3.5,0.3,8.9,0.5s11,0.5,12.8,1.7s4.5,5.7,6.1,8.5s4.6,7.3,4.6,7.7
						s-1.8,3.7-1.8,4.3s1,1.4,1.8,2.2c0.8,0.7,0.4,1.3,0.2,2c-0.2,0.7,1,2.4,1.1,2.7c0.1,0.2,2.5-1.7,4.1-2s5.3,1.9,5.3,3.4
						c0,3.5,1.3,2.3-6.6,6.4c-1,0.6-2.1,4.7-1.3,6.7s2.7,4.4,4.2,7.2s6,6.9,7.4,8.7s1.8,4.4,5,5s6.2,1.4,8.5,1.7s3.8,0.9,5-0.6
						s3.4-7.3,5.2-11.6s-0.2-5.5,4.1-6.4s11.2-2.9,13-3.4s1.5-4.8,5.6-6.1c2.8-0.9,5.7-1.7,8.6-2.2c4.7-1.1,9.2-2.6,13.6-4.7
						c4-2,5.1-1,6.5-2.8s-1.4-4.6-1.8-7.3c-0.3-2.8,1.3-2.9,2.1-5.4s1.2-4.1,4.3-5.8s4.8-2.6,4.2-4.2s-2.1-4-2.1-5.7
						s0.6-0.7-0.7-3.2s-1.3-2.8-0.1-5s4.4-1.7,4.2-2.7s-5.1-2.5-5.2-5.3s0.9-3.6,1.7-4.3s8.9-5.3,9.5-5.7s-0.2-1.6,3.8-3
						s5.4-2.3,6.9-2.7s3.9-0.4-0.7-1.3s-5.7-1.4-8.7-1.1c-3,0.3-4.1,1.5-9.5,1.8c-3.9,0.4-7.7,1.1-11.5,2.2c0,0,1.8-1.2,0.2-2.3
						s4.2-4.8,5.1-5.2s-7.5-1.9-11.9-2.5s-13-2.4-18-2.2s-12.2,0.2-14.7,0.8s-2.1,2.9-5,3s-8-1.2-12-0.8s-10.4,2.4-11.1,2.5
						s2.5,1.5,4.6,1.8s4.8,3.4,4.8,3.4s-5.6-1.3-11.3-2.4s-12.3,0-14.6,0.5c-3.3,0.8-6.6,1.4-10,1.5c-4.6,0.2-9.9,2.8-12.5,4.1
						s-10.9,4.6-12.9,5.5s-1.3,1.2,1,1.6S281.5,22.1,281.5,22.1L281.5,22.1z M163.2,65.8c0.6,1.9,0.6,4.7-0.9,3.5s-2.7-3.6-5.1-2.6
						c-2.4,1-5,0.7-4.6,0.5s-0.1-1.3-1.3-1.6c-1.2-0.3-2,0.2-3.2,0.7s-5.3,1.2-3.7,0.3s1.1-1.4,0.5-2.5s-4.8,0.7-7,1.9
						s-3.6,2.9-4.9,4c-1.3,1.2-0.4,1.9,1.6,2.3s5.3,0.7,2.6,1.4c-2.7,0.7-4.8,1.2-3.4,1.8c2,0.6,4.1,0.8,6.2,0.5
						c2.7-0.4,5.5-0.4,8.3,0.1c2,0.4,4.1,0.7,6.1,0.7c-1.3,0.5-2.6,0.8-4,1c-2.6,0.3-7.2,0-9.6,0.3c-2.4,0.3-6.2,0.8-5.2,1.4
						c1.4,1.2,3.2,2,5,2.4c3.3,0.7,3.9,0,5.9,0.4s0.9,1.9,1.4,2.2s4.3-0.2,8-0.7s2.3-0.9,5.3-1.4s3-2.1,4.7-2.5s0.5,0.8,2.5,1.2
						c2,0.3,0.9,0.5,3.1,0.7s1.8,0.8,3.9,0.7s4.6-1.1,4.3-1.3c-0.5-0.3-0.6-0.9-0.4-1.3c0.2-0.7-2.1,0.1-3,0.5c-0.9,0.3-0.8-1,1-1.6
						s3.4,0,4.5,0s0.1-2.2-1.8-2.5c-1.9-0.3-2.8-1.2-5.6-2.3c-2.9-1.1-1.4-1.6-2.2-3.1s-2.7-5.9-4.3-6.6c-1.6-0.8-3.3-0.6-4.9-1.3
						C162.7,63.9,162.8,64.9,163.2,65.8z M119,62.8c0.7,1.4,0.8,0.5-0.6,2.1c-1.4,1.6-0.6,2.1-1.5,3.3c-1,1.2-3.5,2.7-2.7,3.5
						s3.4,1.2,4.4,1.8c1.1,0.6,2.1,1.8,4,1.4c1.3-0.3,2.6-0.7,3.9-1.3c1.3-0.5,2.4-1.1,2.4-2.3s-0.1-1.8,0.4-1.7s1.4,0.7,1.8-0.1
						c0.5-1,1.2-1.8,2.1-2.5c0.9-0.6,3.5-1.3,4.7-2s3.3-1.6,3.9-2.2s-1.1-1.1-2.1-1.4s-2.2-1.4-4.5-1.4s-3.6,1.3-3.5,0.7
						s-1.6-0.8-2.6-1.1c-1.6-0.5-3.3-0.6-4.9-0.4c-2.3,0.1-4.5,0.4-6.7,0.9C115.4,60.5,118.3,61.4,119,62.8L119,62.8z M188.3,79.7
						c-0.9,0.4-1.7,0.8-2.6,1.3c-0.9,0.7,1.8,0.3,2.7,0.5s1.5,0.8,2.2,1c2,0.3,4,0.2,6-0.3c1.5-0.5,1.7-0.7,1.5-0.9
						c-1.7-1.3-3.5-2.4-5.4-3.2c-2.2-0.8-2.3-0.9-2.8-0.7C189.5,77.7,188.6,79.4,188.3,79.7L188.3,79.7z M178.2,63.2
						c-1.4,0.5-2.5,1.1,0,2c1.7,0.7,3.3,1.5,4.9,2.4c1.6,0.7,2.3,2.9,5.8,1.9s4.9-2.1,5.3-3.1c0.5-1-0.5-1.2-1.3-2.1
						c-0.6-1-1.7-1.4-2.8-1.2c-1.8,0.1-2.4,0.1-2.4,0.1c0.9-0.8,2-1.3,3.1-1.7c1.9-0.7,0.3-1.1,1.2-1.8s-2.3-1-3.7-0.7
						s-1.4-0.1-3.7-0.1s-5.9,1.4-5.8,1.9s1.9,0.3,3.5,1s2.1,0.6,0.5,2.4s-2.4-0.4-3-0.7S179.7,62.7,178.2,63.2z M168,60
						c-2.4,0.2-3.2,1.3-2.3,1.5s1.5-0.2,2.9,0.9s2.7,1.7,3.3-0.1C172.5,60.5,171.7,59.7,168,60L168,60z M129.6,46.3
						c-2.7,1.5-3.2,2.7-5.3,3.7s-1.6,1.8-0.9,2.3s2.8,0,3.7-0.4c1-0.4,1.8-1.2,2.3-0.7s3-1.8,4-2.6c0.8-0.7,1.7-1.2,2.7-1.6
						c0.3,0-0.9,0.9-0.5,1.7s2.3,0.8,4-0.5s0.2-2.4,1.5-3.4s2.4-0.8-0.2-1.7c-1.6-0.7-3.4-0.5-4.8,0.6
						C135.7,44.1,134.8,43.4,129.6,46.3z M145.8,48.7c-1.6,0.1-3.2,0.4-4.7,1c-1.9,0.7-3.4,2.1-4.1,3.9c-0.6,1.1,0.3,1.1,2.6,1.7
						s5.5-0.2,6.2-1.7s1.7,0.4,1.2,1.1s1.6,0.1,2.6-0.3c1.3-0.3,2.7-0.5,4-0.5c-1.5,0.9-3.1,1.6-4.8,2s-3.5,0.8-5.2,1
						c-0.7,0.1,0.6,0.8,3.6,1.2s4.7-1.3,8.9-2.4s4-1.3,5.4-1s2.9-0.5,4.6-0.8s2.4,0.2,3.1-1.6s2.1-3.5-0.3-3.6s-2.6-0.1-2.9,1.8
						s-0.5,0.7-0.5,0.7s-1.6-1.7-2.6-2.6s-1.6-2.3-2.7-3s-1.6,0.3-3.2,1.6s-0.3,1.8,1.3,2.4s2.8,2,2,2.4s-1.7-0.1-4.7,0.2
						s-2.9-0.7-3.8-1s1.4-0.9-1.8-1.8S146.9,48.7,145.8,48.7L145.8,48.7z M135.9,50.6c0.3-0.4-4,1.8-4.7,2.6s0.7,0.6,2,0.6
						S134.8,51.9,135.9,50.6z M144.4,45.9c-1.1,0.3-1.1,0.6,0.7,0.8s2.8-0.4,2.4-1S145.2,45.6,144.4,45.9z M153.4,39.2
						c-1.2,0.1-4.6,1-4.8,1.4c-0.1,0.7,0.1,1.5,0.6,2.1c0.5,0.7,0.7,0.8,3.7,0.3s5-1.7,4-1.8s-1.6-0.5-2.5-0.6s0.8-0.4,2.7-0.9
						S159.8,38.5,153.4,39.2L153.4,39.2z M143.4,40.3c-0.8,0.3-1.1,0.3,0.6,0.8s3.6,0.4,3.4,0.1S145.7,39.5,143.4,40.3L143.4,40.3z
						 M150.2,36.9c-1,0.3-1.8,0.8-2.4,1.7c-0.4,0.3,1.9-0.2,2.9-0.4s1.3,0.3,2.3-0.4s3,0,4.8-0.3s2.1-1.1,1.7-1.9
						S155,35.5,150.2,36.9z M168.2,40c-0.5,0.2-0.3,0.7,0.1,1.4s0.5,0.5,1.4,0.7c0.7,0.2,1.4,0.5,2,0.9c0.2,0.2,0.4,0.2,0.7-0.4
						s-0.2-0.5-1.2-1.4S169.5,39.6,168.2,40L168.2,40z M174.4,45.6c-0.9-0.2-1.9,0-2.7,0.5c-0.5,0.2,0.3,0.6,0.6,1.3s0.1,1,2.1,1.1
						s2.6-0.2,2.8-1.1S175.7,45.8,174.4,45.6L174.4,45.6z M182.3,47.2c-1.3-0.7-1.9-1.2-3.1-0.8s-0.2,0.8-0.2,1.1s1.5,0,1.6,0.6
						s0.5,0.8-1.4,0.9s-2.4,0-3.1,0.4s1.4-0.1,2,0.5s1.7,0.7,3.5,0.5s4.2-0.5,4.2-0.5c-0.7,0.4-1.3,0.9-1.8,1.5s-0.8,1.5,0.2,1.9
						s1-0.5,3.6-0.5s3.4-1,3.4-1c-0.4-0.3-0.6-0.8-0.5-1.3c0.1-0.4,0.1-0.8,0-1.1c0.4,0.2,0.9,0.5,1.3,0.7c0,0-0.2-0.6-0.6-1.5
						s-0.1-1.1-0.5-2.4s-0.3-1.6-2.3-1.6s-3.3,0.5-4.9,0.5s-2.3,0.2-1.1,0.6c0.8,0.3,1.4,0.8,1.9,1.4c0.6,0.5,0.5,1.6,0.5,1.6
						L182.3,47.2z M172.5,52.2L172.5,52.2c-0.7,0.2-1.1,0.7-1.2,1.4c-0.1,0.5,1.1,0.2,2.9-0.2S175.1,51.7,172.5,52.2z M197.7,49.8
						c-1.3,0.5-2.5,1.2-3.5,2c-0.9,0.7-0.1,0.8,2.1,1.6s4.6,1,5.6,0.1S201.4,48.4,197.7,49.8L197.7,49.8z M208,43.7
						c-2.8,0.2-2,0.5-5.2-0.3c-2.8-0.6-5.7-0.9-8.5-0.8c-1.1,0-0.6,0.4,0.6,1.7s1.5,1.8,3.9,1.4s4.4-0.7,6.1,1.1s2.7,2.4,1.2,3
						s-0.8,1.7,0.1,3.1s2.8,1.3,5.4,1.3s19.6-0.2,22.3-0.5s5-1.9,6.4-2.7s2.1-1.8,0.2-2.6c-2.1-0.9-4.4-1.5-6.8-1.6
						c-2.1,0-4,0.8-7.3,1s-2.6,1.4-5.5,1.4s-1.5,1-5.2-0.1s-6.3-2.4-4.6-2.6s3.1-0.3,2.1-0.9S210.6,43.5,208,43.7L208,43.7z
						 M174.1,33.8c1.8,0.4,2.2,0.7,0.2,1.1s-3.5,1.3-1.5,1.2c2.1-0.1,4.1,0.1,6.1,0.4c2.5,0.3,2.3,0.1,3.4,1.1s2.3,1,4,0.7
						s2-0.4,0.8-1.3s-2.3-2.5-3.8-3.1s-2.8-1.5-4.3-1.4c-1.2,0.3-2.5-0.1-3.2-1.1c-1.3-1.3-2.4-0.7-4.3-0.3s-2.5,1.3-3.3,1.8
						C166.9,33.8,172.3,33.5,174.1,33.8L174.1,33.8z M197.1,20.8c-2.1,1.8-3.8,3.4-1.4,3.6s3.4-0.1,3.6,0.4s-0.4,0.9-3.9,0.9
						s-2.4,0.6-0.5,2.2s2.2,1.1,5.1,1s4-0.8,6.5-0.4s3.2,0.9,1,1.4s-7.5,1.5-6.3,2.3c1.2,0.8,4.9,2.7,6.6,2.9s2-0.8,5.7-0.5
						s2.8,0.6,3.1-0.2s2.4-2.5,2.8-3.2s1.4-1.1,3.4-1.4s2.6-0.8,0.8-1.2s-4-0.7-3.8-1s1.4-1.5,0.6-2s-2.1-0.5-3.1-0.8
						s-2.2-1.6-3.5-2.2s-2.5-0.6-4.1-1.5s-4.1-3-7.3-2.9C200.1,18.2,199.2,19.1,197.1,20.8L197.1,20.8z M193,36.3
						c-0.8,0.3-2.8,0.3-1.3,1.2s1.1,0.9,2.9,0.4c1.7-0.4,3.3-1.2,4.8-2.1c0.2-0.4-1.9-1.1-3.3-1.4s-2.4-1.1-5.4-1.7
						C186.4,31.9,193.8,36.1,193,36.3L193,36.3z M290.7,8.8c-3.3-0.6-15.1-2.3-19-1.6s-3.6-1.4-9-0.9s-13.5,0.2-16.1,0.5
						s1.3,1.1,2.7,1.7s-6.6-0.7-12.7,0.5s-10,1.8-3.5,3.6s7.3,2.3,7.3,2.3s-8.3-1.1-11.8-2s-1.6-0.9-8.2,0.4s-13,2-12.7,3.5
						s5.3,3.3,8.6,3.8s10.1-0.7,10.7-0.8s-2.7,1.9-2.7,1.9s3.4-0.5,7.2-1.2s6.8-1.5,10.4-2.4c1.4-0.3,2.9-0.7,4.3-1.2
						c-3.4,1.9-6.9,3.5-10.6,4.7c-4.1,1.1-8.4,1.8-12.7,2c-2.7,0.1-2.2,1.3,0.4,2.3s4.7,3.1,6.1,3.8c0.8,0.4,1.4,1,1.6,1.8
						c-2.7-1.4-6-1.4-8.7,0c-4.6,2.3-3.9,3.5-2.8,3.8s5.2,0.6,6,1.6s6.1-0.9,6.1-0.9s-2.7,2.5-5.3,2.5s-2.4-1.6-6.2-1.3
						s-3.5,0.9-1.9,1.8s2.9,1.2,0.1,2.1s-4,1.2-4.1,2.3s3.6,1.1,6,1.1s4.6-0.2,8.8-0.2s3.7-1.1,5.3-1.1s3.2,0.3,2.6,1.5
						s0.6,0.4,5.3-0.8s2.6-3,2.2-3.7s-2-0.8-3.1-1.2s3.2-3.5,2.6-4.5s5.2-0.2,7.9-2.7s1.7-4.3-0.2-4.7s3.5-0.1,5.2-0.8
						s5.4-1.6,6.9-2.9s2-1.8-1.6-1.6s5.2-1.1,9.5-3.1s9.2-4.3,10.2-4.9s2-0.3-3-0.1s-11-0.3-7.7-0.6s13.1-1.1,15.7-2.5
						C288.2,10,289.5,9.4,290.7,8.8L290.7,8.8z M231.1,57.7c-5.3-0.3-13.1-1.3-14.7,2c-1.7,3.8-3.1,7.8-4.2,11.8
						c-0.2,1.3,6.4,3.3,11,3.4s12,0.3,10.5-0.4c-1.5-0.8-0.2-1.2,4.1-1.1s4.7-0.6,4.7-1.3s0.8,0.8,3.7,1.9c3,1.1,5.5,4.3,8.2,6.1
						s8.6,4.3,7.5,5.7s1.3,6.4-7.9,7.5s-9.7,0.4-9.6,1.8s0.5,2.1,4.1,2.1s8.6-2.1,10.3-0.6c1.6,1.3,3.5,2.1,5.5,2.5
						c1.5,0.4-1.8,1-2.7,1.2s1.8,0.4,7,2.2s11.5,2,8.4,0.7s-4.6-3.6-6-4.4s-0.1-0.1,2.4,0.3c2,0.5,4,1.3,5.7,2.5
						c1.1,0.6,1.6-0.2,2.3-2.7s-0.3-2.5-4.5-4.4s-5.4-3.5-5.9-4.9s2.1-1.7,3.2-2.7s4,1.8,6.1,3.4s3.7,4.4,5.3,2.4
						c1.5-2.3,2.6-4.9,3.1-7.7c0-1-1.6,0.1-8.4-2.3s-10.3-3.3-11-3.3s1.8-0.9,4.8-2s4.3-0.9-2.1-5.2s-8.2-5.2-12.4-5.5
						c-4.2-0.3-5.3-3.4-8.3-4.4s-9.9,1.3-11.9,1.6c-2,0.4-1.4,0.9-3.9-1.7C233.1,59.7,231.1,57.8,231.1,57.7L231.1,57.7z
						 M235.9,57.7c-2.6,0.2,1.6,3.7,5,3.8c2.4,0,4.7-0.4,7-1.2C248.7,60.2,240,57.5,235.9,57.7L235.9,57.7z M223.9,92.7
						c-0.8,1.3-1.4,2.8-1.7,4.3c-0.1,0.9-0.4,1.8-0.9,2.5c-0.4,0.9,1.3-0.2,2.4,1.2s0.6,1.7,2.6,0.2c2-1.6,4.6-2.1,7-1.4
						c2.8,0.6,5,0.9,4-0.3s-2.2-1.1-4.1-2.8c-1.6-1.4-3.6-2.3-5.8-2.7C225.2,93.1,224.9,91.1,223.9,92.7L223.9,92.7z M244,216.3
						c-0.8-1.2-2.1-3.2-7.3-3.9s-6.9,0.7-8.8,1.1s1.8,0.7,4.3,0s4.3-0.1,4.7,0.2s-0.8,0.5-1.3,0.2s-0.5,0.8,2.3,1.5s3.5,1,3.7,1.9
						c0.1,0.7,0.4,1.4,0.9,2c0.6,0.7,0.9,1-0.3,1.3s-0.8,0.3,0.1,0.6c1.6,0.7,3.3,1.1,5,1.1c2.4,0.1,3.2,0.5,1.6-1.1
						S244.3,216.7,244,216.3L244,216.3z M251.8,224c0.9,0.6,1.2,1.7,0.9,2.6c-0.1,0.6-1.5,0.1-4.2-0.4s-2.3-0.3,0.1,0.6
						s3.8,0.7,3.7,1.9s2.1,0.1,3.1-0.6c1-0.7,0.9-0.1,5,0.4s5,1,4.3-0.3s1.9-1.2-1.8-2.4S250.2,222.9,251.8,224L251.8,224z
						 M240,224.7c-1.6-1.2-3.5-1.4-3.5-0.4s0.5,1,2,1.3S241,225.5,240,224.7L240,224.7z M270,230c-1.7-0.4-2,0.5-0.9,1.3
						s2.9,0.5,4.5,0.4S272.9,230.8,270,230L270,230z M250.6,82.5c-2.2,0.7-3.6,1.1-1.6,3s3.1,3,3.9,1.6S254.4,81.4,250.6,82.5z
						 M232.6,102.1c-3.4,0.4-4.5,0.4-3.9,1.8s1.4,1.1,3.7,0.3S236.3,101.7,232.6,102.1L232.6,102.1z M239.6,104.1
						c-0.6,0.1-0.8,1.1,0,1.9s2.2-0.3,2.8-1.3S241.8,103.7,239.6,104.1L239.6,104.1z M202.8,39.1c-3.2,0.1-8,0.9-5.3,0.9
						s4.8,0.4,9.2,0.3s4.7-0.4,4.8-1.9S208.7,38.9,202.8,39.1z M182.8,26.6c-3.3,0.7-2.4,1.2,1.4,2.4s3.9,0.6,3.5-1.6
						S184.8,26.2,182.8,26.6L182.8,26.6z M410.4,85.6c-4,0.8-5.4,0.3-6.1,1.8s-2.3,0.7-3.3,0.9s-2.2,4.2-2.8,3.6
						c-0.7-0.7-1.3-1.5-1.8-2.3c-0.9-1.4,0.3-1.1-1.5-2.6s-5.3-1.3-5.5-0.7s2.4,1.1,1.5,1.8s-3.1,1.5-3.9,2s1.6,0.3,3.1,0
						c1.3-0.1,2.5,0.5,3.2,1.6c0.6,0.8-0.7,1.5-1.4,1.8s2.2,0.3,3.3,0.4s1.7,0.8,1,1.8s3.4,0.1,5.7,0s2.9,1.1,6.4,0.4
						s5.1-0.7,8.3-2.4s2.9-1.3,5-2.4s1.6-1.4,1.7-2.6s1.4,0.3,0.9-1.5s-3.1-1.3-4.9-1.4s-1.8-1.2-2.7-1.5S414.5,84.8,410.4,85.6
						L410.4,85.6z M680,240.9c-0.3,0.6-0.4,1.2-0.4,1.9c-0.1,1-0.1,1.9-0.1,2.9c0.1,1,0.2,1.6,0.9,1.8c0.8,0.3,1.7,0.3,2.5,0
						c1.2-0.4,2.4-1.1,1.8-2.2c-0.7-1.2-1.5-2.3-2.4-3.4C681.6,241.2,680.3,240.1,680,240.9L680,240.9z M679,239.6
						c0.1,0.4,0.3,0.3,0.6,0.6s0.6,0,0.2-0.3s-0.3-0.4-0.3-0.4S678.9,239.4,679,239.6 M793.9,295.9l-0.1,0.1c-2.2,1.6-4.2,1.1-7.9,2
						s-10.5,3.6-11,4.8s0,1.4-0.5,1.2c-0.5-0.2-0.9-0.5-1.3-0.9c-0.6,0.8-0.9,1.8-0.8,2.8c0.2,1.3,1.1,2.1,1,3.8s-1,2.7-0.9,3.9
						s2.8,3.4,3.5,4.8s1.2,1,1.6,3.5s2.2,3.9,0.4,5.2s-3.2,1.1-1,2.4s4.1,2.3,7.7,1.4s2.6-1.7,5.4-2.1s3.3-0.8,5.8-1s4.1,0,5-1.2
						s0.2-1.2,2.6-2s2.2-1.1,3.8-1.3s2.6,0.6,4.8-0.6s0.6-1.3,5.3-1.3c2.9-0.1,5.8,0.2,8.5,0.9c1.8,0.4,4.6,1.5,5.3,2.3
						s1.7,1.8,2,1.8s0.7,0,1.8-0.7c1.4-0.9,2.8-1.7,4.3-2.4c-0.1,0.8-0.4,1.6-0.9,2.3c-0.5,0.5-0.8,1.2-0.7,1.9c0,0.3,1.8-1,2.1-1
						s0.5,2.3,0.7,2.5s1,0.1,1.7,0.8c1,0.7,1.8,1.5,2.4,2.5c0.7,1.3,3.8,2.6,5.7,2.9c1.7,0.2,3.3,0.1,5-0.1c1.4-0.1,1.5-1.4,3-0.9
						s-0.1,1.5,3.5,1.3c2.1,0,4.2-0.6,6-1.8c1.4-0.7,1.6,1,3.4-0.8s2.2-1.4,2.5-3.5s0.2-2.6,2-4.6s2.2-1.1,3.4-4.1s2.7-5.9,2.5-8.4
						s0.1-0.9-0.7-3.6s-0.2-2.5-2.8-3.6s-3.2-0.9-3.8-2.5s0.2-2.1-1-2.1s-2.2,0.4-3-0.7s-0.6-1.5-2-2.6s-2.6-0.9-5.1-1.6
						s-1.2-1-1.2-2.4s0.1-2.8-1.8-3.5s-0.8,0.4-0.8-1.9s0-1.9-1.6-2.3s-2.1-0.4-3.1-1.7c-1-1.5-2-3-2.8-4.5
						c-0.5-0.9-1.1,0.1-1.7,0.8c-0.9,1-1.4,2.2-1.5,3.5c0,1.4,0.8,2.1,0.8,4s-1.8,3.7-2.9,4.7s-2,0.1-3-0.2s-1.2-1.3-3.2-2
						s-5.8-1.3-7.5-2.4s-0.5-1.1,0-2.3c0.5-1.2,1.4-2.2,2.6-2.8c1.3-0.7,0.9-1-0.7-1.6s-3.8-0.7-6.5-0.7s-4.3-0.1-4.2,1
						s1.8,1.5-0.5,1.2s-4.3-0.5-5.3,0.3s-1.2,1.2-1.8,2.9s0.2,1.8-0.8,1.8s-4.7-1.3-6-1.7s-2-0.4-3.5,0.6c-2.8,1.8-5.6,3.5-8.6,5
						C795.8,291.7,795.9,291.6,793.9,295.9L793.9,295.9z M722.9,248.2c-1.1-0.1-1.8-0.3-0.4,1c0.9,0.9,2,1.7,3.1,2.4
						c1.3,0.9,1.8-0.6,2.8,1.1s0.6,1.7,1.7,2.4s1.9,0.8,2.1,1.4c0.3,1,0.9,1.8,1.8,2.3c0.9,0.4,1.6,1.1,1.9,2
						c0.7,1.4,1.8,2.4,2.3,3.5s3.6,2.3,5.1,3.7s4.2,3.5,4.6,2.9s1.5,0,2.3-0.2s1.1-1,1.6-3c0.5-1.3,0-2.7-1.2-3.4
						c-0.7-0.5-2.1-0.6-2.5-1s-1-1.9-1.9-2.3s-1.1,0-1.1-1.1s1.1-1-0.3-1.6c-0.7-0.3-1.4-0.8-1.9-1.4c-0.4-0.3-3.3-0.8-4-1.4
						s-3.9-1.6-5.4-2.6s-3.1-1.9-3.6-2.7S727.8,248.7,722.9,248.2L722.9,248.2z M753.9,271c-1.3,0-1.9-0.5-2.8,0.6s-0.7,1.1,0.6,1.1
						s1.1,0.5,1,0.6s-0.6-0.1,2.1,0.7c1.7,0.6,3.6,0.7,5.4,0.2c0.8-0.3,1,0.7,4.7,1.1s5.7-0.3,8.1,0.2s1.8-0.2,0.1-1.1
						s-1.5-0.4-3.3-1.3s-4.1-0.9-5.2-1.1s1,0.8-2.4,0.5s-2.2,0.2-4-0.6s-1.8-1-2.9-1.1S753.9,271,753.9,271L753.9,271z M780.9,274.9
						c-1,0.2-2.9,0.6-2,0.9s0.2,0.5,3,0.3s5.3-0.4,5.6-0.9s-0.5-0.1-1.7-0.4s-1.1,0.2-2.7,0.3C782.5,275.2,781.7,275.1,780.9,274.9
						L780.9,274.9z M790.8,274.7c-1.9,0.2-1.7,0.5-0.2,0.8c1.3,0.3,2.7,0.4,4,0.2c1.1-0.3,2.2-0.5,3.4-0.7c2.1-0.2,2.8-0.2,4.4-0.4
						l1.7-0.1c0,0-0.2-0.2-1.3-0.2s-1.9,0.1-3,0.1s-3,0.7-3.8,0.7c-0.9-0.2-1.8-0.2-2.7-0.2C792.9,275.1,792.9,274.5,790.8,274.7
						L790.8,274.7z M801.5,276.4L801.5,276.4c-1.4,0.6-1.5,0.8-1.3,1.3c0.1,0.3,0,0.5-0.1,0.7c1.2-0.1,2.4-0.5,3.4-1.1
						c0.9-0.8,1.9-1.3,3-1.4c1.1-0.4,2.2-0.9,3.2-1.6c-0.8,0.1-1.7,0.2-2.5,0.1c-1,0-2.1,0.2-3,0.7
						C803.8,275.5,804.6,275.6,801.5,276.4L801.5,276.4z M790.4,277c-1.4-0.7-2.7-0.6-2.8-0.2s-1.2,0.4,0.8,0.9s3.8,1.2,3.7,0.5
						S791,277.3,790.4,277L790.4,277z M777.6,247.6c-0.8,0.8,0.8,0.6-0.4,1.3s-2.1,0.4-3.2,1.4c-1.1,0.9-2.4,1.6-3.7,2.2
						c-0.7,0.4-3.2,0.8-4.2,1.9s0.4,1.6,0.4,1.6c-0.8,0.1-1.6,0-2.3-0.3c-1.7-0.5-1.8-1-1.8-1c-0.8,0-1.6,0.5-1.9,1.3
						c-0.7,1.3-1.1,1.4,0.2,2.2s-0.8,0.8-0.6,1.3s0.3,1.5,1,1.6s0.9-0.5,1.8,0.3s0.2,3.1,1.3,3.2s2-0.3,3,0.1s2.1,0.5,3.1,0.3
						c1.2-0.2,2.4-0.1,3.5,0.3c1.4,0.5,2.9,0.8,4.4,0.8c1.2-0.1,1.4,0.1,1.7-1.1s0.1-2.4,1.5-3.3s1.5-1,1.7-1.8c0-1,0.3-2,1-2.7
						c0.9-0.9,1.4,0.5,1.9-0.2s1-0.7,0.7-1.1c-0.3-0.3-1.7-0.4-2.2-1s0.2-1-0.5-2.4s-1-0.9-0.1-1.6s1.7-0.9,1.8-1.5s0.5-0.6,1.6-1.2
						s-0.2-0.3-1.3-0.9s-3-2.7-4.3-2.7C781,244.7,778.5,246.8,777.6,247.6L777.6,247.6z M935,322.4c-0.5-0.3-1-0.1,0.2,0.9
						s1.3,0.7,2,0.7s1.4,2,1.8,2.5c0.4,0.4,0.8,0.8,1.2,1.1c0.2,1,0.2,2.1,0,3.1c-0.4,1-1.2,1.4-1.4,2.3s1.2,0.6,2.2,0.9
						s0.8,0.3,0.4,1.1s-1.5,1.1-1.5,1.3s2.2,1,3.3,0.1s2.9-2.4,3.3-3.4s-0.8-0.6,0.7-1.3s1.3-0.4,2.1-1.3s1.7-1.9,0.8-2.4
						s-1.9,0.6-2.7,0.8c-0.8,0.3-1.7,0.2-2.6-0.1c-1.1-0.4-1.3-0.4-1.8-1.1c-0.3-0.4-0.6-0.8-1-1.1c0,0-0.3,1.2-1.1,0.8
						s-0.6-0.8-1.2-1.5c-0.4-0.4-0.7-0.9-1-1.4c-0.4-0.5,0-1.4-1.9-1.6S935.5,322.7,935,322.4z M935.3,335.2c-1,0.6-2,1.4-2.8,2.2
						c-0.8,0.7-1.5,1.6-2,2.5c-0.4,0.7-2,1.5-4.5,2.5s-3.5,1.3-4.4,2.2s-3.9,3.6-4.3,4s1.4,0.6,3.3,0.6s4.8,1.2,6.4,0
						s3.2-4.2,4.2-5.2c1.1-1,2.3-1.8,3.6-2.5c1.6-1,4.3-2.9,4.3-3.7c-0.1-0.7-0.3-1.3-0.7-1.9c-0.5,0.6-1.3,0.8-2,0.7
						c-0.6,0-1.1-0.5-1.1-1.2C935.3,335.4,935.3,335.3,935.3,335.2z M922.8,348.8c-1.9-0.7-2.2,0.6-2.5,2s0.8,0.2,2.4-0.4
						S923.5,349,922.8,348.8z M859.4,339.5c-2.1-0.5-1.8,0.9-1.4,2c0.3,1,0.8,2,1.5,2.8c0.8,0.9,3.8,1.2,5,0.8s2-1.7,3.2-2.9
						s1.7-2.6,1.5-3.4s-1.7,0.7-2.7,1s-2.2,1.1-4,0.8C861.5,340.3,860.4,340,859.4,339.5L859.4,339.5z M832.9,263.9
						c-1.7,0.3-2.6-0.8-3.9-2.8s-2.5-2.3-6-1.4s-3,0.7-0.6,1.3s2.7,0.9,3,0.9s3.7,0.4,3,0.7s-3.9,0.7-1.9,1.7s1.2,0.3,6.5,2.2
						s6.2,0.5,7.9,3s1.7,2,0.3,2.7s-3.2,1.3-2.5,1.3s2.1,0.3,5.8,0.4s0.2,1.6,4.3,1.6s5.1-0.9,6.7-2.3s1.9-0.6,5.3-0.1
						s4.6,2.7,8.8,3.5s6.1,2,3.4,0.2s-3.6-3-7.2-5.1s-3.8-2.3-4.9-3.8s-4.8-3.4-9-4.6s-6.5-1.4-11.4-2.3S834.6,263.6,832.9,263.9
						L832.9,263.9z M804.9,256.9c-1.6,0.8-1.8,0.3-3-0.2s-0.9,1.1-3.5,0.2c-2.7-0.9-3.7-1.3-6.5,0.2c-2.8,1.5-1.1,2.1-1.1,3.2
						s-2.4,4-3.3,5.1s-0.9,1.5-0.2,2.2s1.6,0.4,2,0.8s0,3.1-0.5,4s1.1,1.1,2.8,0.8s0.2-0.4,0.2-1.3s0.8-1.4,0.8-3.2V266
						c0,0,0.5-0.2,1.1,0.4s1.5,2.3,2.2,3.2s1.5,1.5,2.6,0.9s2.2-1.3,2.2-1.3s-2.2-0.5-2.2-1s0.9-1-0.6-2.7s-2.3-1.8-0.4-1.9
						s1.9-1.5,3-1.9c0.9-0.2,1.8-0.3,2.7-0.3c-0.8-0.5-1.9-0.7-2.8-0.5c-1.6,0.2-3.2,0.6-4.7,1.1c-1.5,0.6-2.7,0.9-3-0.1
						c-0.3-0.9-0.4-1.8-0.3-2.8c0.2-1.5,2.5-0.4,4.3-0.7s1.7-0.3,5.5-0.1s4-0.4,5.2-1.5c0.7-0.7,1.3-1.5,1.8-2.4
						C809.1,254.5,806.5,256,804.9,256.9L804.9,256.9z M813.9,253c0.3-0.4-2.8,1.5-3.3,1.9s0,1,0.4,1.5c0.4,0.6,0.3,2.5,0.5,2.9
						s1.8,0.8,1.8,0.8c0-0.7,0.1-1.3,0.5-1.9c0.6-0.6,0-1.3,0-2.4C813.8,254.7,812.9,254.2,813.9,253L813.9,253z M807.8,264.6
						c-2.5-0.7-3.4-0.2-3.4,0.7s-0.3,1.4,2.3,1.4S812.3,265.8,807.8,264.6L807.8,264.6z M812.7,264c-0.8,0.5-1.2,1.4-0.9,2.3
						c0.3,0.8,0.8,0.3,2.1,0.1s1.2-1,2.9-1c1.8,0.1,3.6,0.4,5.3,0.9c0,0,0.8-0.6-2-1.9S816,263.2,812.7,264L812.7,264z M764,219.2
						h-2.8c-0.4,0-1.2,0.7-1.8,0.9s-0.6,0.6-0.2,1.3s1.1,0.7,2.3,1s0.8-0.4,1.7-0.6c0.6-0.2,1.2-0.7,1.3-1.3c0.2-0.5,0.8-0.8,1-0.9
						s-0.7-0.8-0.7-0.8C764.4,218.9,764.2,219,764,219.2L764,219.2z M792.8,221.6c-1-0.5-1.5,1.3-1.8,2.2s-0.6,1.5-0.1,2.2
						s0.3,0.9,0.3,0.9l-1.4-0.7c-0.2,0.5-0.3,1-0.4,1.6c0,0.7-0.4,1,1.2,1.6s2.1,0.3,2.3,1.1s0.2,1.2,1.3,1.3c1,0.1,1.9,0.4,2.7,1
						c0.4,0.5,0.2-1.3,1-1.2c0.8,0.2,1.6,0.7,2.1,1.4c0.4,0.4,0.8,0.6,1.3,0.6c0,0-1.2-1.5-0.7-1.6s0.7-0.3-0.7-0.9
						c-1.1-0.4-2.4-0.6-3.6-0.6c-1.1-0.1-1.1,0.5-1.9-1c-0.5-0.8-0.5-1.8-0.2-2.7c0-0.3,0.6,0.5,1.2-0.5c0.6-0.8,0.8-1.8,0.7-2.8
						s1-1.4,0.2-1.4C795.2,221.9,794,221.8,792.8,221.6L792.8,221.6z M805.5,240.5c0.2,0.7-1-0.2-1.4,0.2s-0.6,0.3-1.3,0.5
						c-0.8,0.4-1.6,0.8-2.3,1.3c0-0.3,0-0.6,0-0.9c0-0.2-0.5-1-1-0.4c-0.6,0.6-1.3,1.1-2.1,1.3c-1.1,0.4-1.8,1-2,1.7
						s0.7,0.7,0.7,0.7c0.4-0.3,0.8-0.6,1.2-1.1c0.7-0.8,0.9-0.8,2.2-0.9s1.2-0.1,1.7,0.4s0.1,1.3,0.1,1.9s0,1.3,1.3,1.6s0.7,0,2,0
						s1.2-0.1,1.1-0.5c-0.3-0.4-0.5-0.9-0.6-1.4s0.7-0.8,1-0.9s0.4,0.5,0.8,1.2s0.5,0.6,0.7,0.1c0.3-0.7,0.5-1.5,0.4-2.3
						c-0.2-0.5-0.2-1.1-0.2-1.6c-0.1-0.6-0.5-1.1-1-1.4c-0.4-0.2-1.6-1-1.6-1S805.3,239.8,805.5,240.5L805.5,240.5z M799.3,236.2
						c0,0,0-0.5-1.1-1.3c-0.8-0.8-1.9-1.2-3-1.3c-1.8-0.2-3.5,0.1-2.8,1.5s1,1.5,2.5,1.7c0.8,0.1,1.7,0,2.4-0.4c0,0,0.1,0.2-1.3,0.8
						s-1.6,1.8-0.5,2.3s1.1,1.2,1.7,0.8s1.1-1.6,2.4-2.5s1.4-1,1.5-1.9c0.1-0.5,0.1-1.1,0-1.6L799.3,236.2z M802.3,233.6
						c-0.2,0.1-1.1-0.1-0.1,0.6s1.8,0.8,1.7,1.3s0,0.6-0.6,0.5s-0.7-0.1-0.9-0.2s-0.3,0.3-0.1,0.6s0.1,0,0.6,0.5s0.3,0.7,0.5,1.3
						s0.5,0.3,0.5,0.3c-0.1-0.6-0.1-1.1-0.1-1.7c0.1-0.3-0.2-1,0.5-0.8s0.5,1.1,0.9,0.3c0.3-0.7,0.3-1.5,0-2.1
						c-0.2-0.6-0.9-0.7-1.7-0.7C803,233.6,802.7,233.6,802.3,233.6L802.3,233.6z M788.5,236.1c-0.4,0.1-0.7,0.3-0.9,1.3
						c-0.3,0.9-1,1.6-1.8,2c-1.1,0.7-2.2,1.5-3.2,2.4c-0.1,0.3-0.1,0.1,1.5-0.4s3-1.3,3.2-2s-0.2-0.3,1.3-0.8s0.7-0.6,0.8-1.4
						S789.3,235.9,788.5,236.1L788.5,236.1z M876.7,265c-0.2,1,0.4,1.3-0.9,2c-1.3,0.6-2.7,0.9-4.1,0.9c-1.3,0.1-0.4-0.2-2-0.2
						s-2.1,0-1.3,0.6s0.6,1.2,3.1,1.1s4.5-1,6.1-1.4s1.5-1.3,1.6-1.7S876.8,263.9,876.7,265L876.7,265z M883.6,267.1
						c0.7,0.7,0.4,0.6,1.3,1.5s2.3,1.1,3.3,1.3s0-0.3-0.8-1c-0.6-0.7-1.2-1.4-2-1.9C884.3,266.2,882.4,265.8,883.6,267.1
						L883.6,267.1z M793.6,207.8c-3.4,1.5-5,1.4-3.6,3.4s2.2,2.8,2.4,3.2s0.9-0.3,1.8-1.8s1-3.6,1.4-4.2S794.8,207.2,793.6,207.8
						L793.6,207.8z M852.1,131.8c0.4,1,0.7,2.6-0.1,2.8s-1.4,1.3-1.7,2.5s-0.6,2.6,0.3,3.6s0.3,1,0.3,1.8s0.3,2.8-0.2,3.9
						s-0.8,1.4-0.6,2.7c0.1,1.1,0.1,2.2,0,3.2c0,1.8-0.2,3.2,0,3.9s0.6-0.4,1-0.6c0.9-0.3,1.8-0.3,2.6,0.2l0.8,0.6
						c0,0,1.3,0.4-0.5-2.3s-2.1-2.1-1.6-4.6s0.7-2.5,2.5-2.7s2.8,1.5,3,1.7s-0.2-0.6-0.8-2s-1.2-1.8-1.4-3.6s-1-3.2-1.9-3.7
						s-0.5-1.3,0-2c0.5-0.9,0.6-1.9,0.4-2.9c-0.2-1.2-0.6-2.3-1-3.4c-0.3-0.6-1.3,0.4-1.3,0.4L852.1,131.8z M850.5,158.8
						c0.2,0.8,0,1.7-0.5,2.4c-0.8,0.9-0.2,1.1-0.6,2.3s-2.5,0-2.5,0.3c-0.1,0.6-0.4,1.1-0.9,1.4c-0.5,0.3-2.3,0.4-1.8,1.6
						c0.4,0.9,0.9,1.7,1.5,2.5c0.4-0.3,0.9-0.6,1.4-0.8l1.2-0.3c0,0-0.2-0.4-1.3-0.7s-1.1-1.2-0.9-1.4s1.7,0.1,2.6,0
						s1.8-0.4,2.9,0.2c0.9,0.5,1.9,0.8,2.9,0.9c0.1-0.6,0.4-1.2,0.7-1.7c0.5-0.7,2.1-0.4,3.6-0.7s2.7-0.5,2.2-1s-0.5-1.5-0.8-2.3
						s-1.3,0-2.1,0.3c-1,0.2-2,0.1-2.9-0.4c-1.4-0.9-2.6-1.9-3.7-3.1C851.4,158.3,850.4,157.9,850.5,158.8L850.5,158.8z
						 M845.7,170.2c-0.7,0.5-1.1,1.3-1,2.1c0.1,1,1.4-0.1-0.2,3.1s-2.4,3.9-4,4.7c-1.1,0.6-2.4,0.8-3.6,0.6
						c-0.6-0.2,0.2-0.9,0.6-1.1s-1.4-0.3-2.1-0.2s0,0.7-0.1,1.2s-1.6,1.9-1.4,2.5s0.2,0.8-0.8,1s-1.6-0.5-1.9-0.6
						c-1.2,0-2.4,0.2-3.6,0.4c-1.3,0-2.4,0.6-3.2,1.6s-2.7,1.1-4,1.5s-0.8,1.7-2.3,2.2c-1,0.2-1.6,1.1-1.6,2.1
						c-0.1,0.7,0.9,0.2,1.1,0.2s0.2-1,1.1-0.9s1,0.1,0.6,0.9s-0.8,1.1-1.2,1.8s0.2,0.9,0.9,1.6s1.4-0.2,2.9-1.3s1.6-1.4,1.5-2.7
						s-0.7-1.3-1.8-1.7s-1.4,0-0.1-1s1.8,0,2.6-0.5s2.9-0.4,4.8-0.8s3.8-0.8,3.9-0.3s0.7,2,0.8,2.3s1.4-0.4,2.7-0.8s0.1-0.5,0-1.1
						s0.6-1,0.6-1s0.7,1,2.8,0.3s2.3-1,2.8-0.9s0.9,0.5,1.8,0.1s1,0,0.9,0.3s2.6-0.6,3.2-0.9s0.3,0,0-1.1s-1-1.2-0.6-2.6
						c0.3-0.8,0.4-1.6,0.4-2.5c0.1-0.9,0.6-1,0.9-1.1s0.3-1.3,1-1.9s0.5-0.9,0.5-2.4s-1.1-1.2-1.2-2.2c0-0.7,0.1-1.4,0.3-2
						c-0.9,0.2-1.7,0.6-2.5,1l-0.2,0.4C846.6,170,846.1,170,845.7,170.2z M830.8,186.1c-2.4,0.3-4,0.5-5.4,0.8s-1.7,0.8-1.5,1.8
						c0.3,0.9,0.6,1.7,1,2.5c0.2,0.5,1,0,2.3-0.5s1.2-1.9,2.5-1.9s0.8,1,2.5-0.4s0.4-1.6,0.5-2.3S830.8,186.2,830.8,186.1
						L830.8,186.1z M980,107.8c-2.5-0.4-3.3-0.7-3.5-0.1s-0.5,0.9,1.1,1.3s2.4-0.3,3.9,0.5c0.9,0.6,2,0.8,3.1,0.7
						c0.6,0,1.1-0.2,1.6-0.5C984.2,108.9,982.1,108.3,980,107.8L980,107.8z M951.2,79.6c-0.9,0.2-1.7-0.4-1.4,1.2s0.8,1.8,3.7,1.5
						s0.7-0.1,4.7-0.3s4.8-0.6,4.8-0.6c-0.5-0.6-1.2-1.2-1.9-1.5c-1.4-0.7-3.2,0.5-6.2,0.1C951.7,79.6,951.2,79.6,951.2,79.6z
						 M861.2,55.8c0,0.6,4,2.3,5.4,2.8s2.6,0.3,5.6,0.1s3.3-1.2,3.6-1.7s-1.4-0.3-3.5-0.6s-3.7,0.3-4.4,0s1.1-0.5-0.7-1
						s-2.2,0.2-2.6,0s-0.5-0.7-1.4-0.7S861.2,55.2,861.2,55.8L861.2,55.8z M845.5,59.4c-1.4,0.4-1.3,0.7,0.3,1.7s1,0.7,0.4,1.4
						s0,0,2.2,0.7s3.2,2,4.5,2.3c0.8,0.2,1.6,0.2,2.4-0.1c-0.5-0.9-1.1-1.7-1.8-2.3c-1.3-1.3-4.2-1.6-4.7-2.8S847.5,58.9,845.5,59.4
						L845.5,59.4z M859.8,54.2c0,0-2-0.9-5.1-2.3s-4.2-1.7-5.3-1.8s-0.9,0.8-1.3,1.5s-0.7,0.6-2.3,0c-1.6-0.7-3.2-1.2-4.8-1.7
						c-1.6-0.3-2.6,0.7-4.5,2s-0.8,1.7,1.5,3.7s3.3,2.1,5.1,1.3s1.3-1.3,2.6-0.9s5.9-0.4,6-0.4s-0.3,1.8,1.7,1.3s3.8-0.7,4.8-1.4
						S859.8,54.2,859.8,54.2z M721.5,16.5c-0.6,0.3-4,0.1-5.8,2.1s-3,0.6-3.9,1.8c-0.6,0.8-1.2,1.7-1.7,2.7c0.9,0.8,2.1,1.2,3.3,1.2
						c1.7-0.1,4.7,0.4,6.3,2s2.9,1.6,6.9,2.1s2.2,0.8,4.3,0.7s4.9,0.2,4.3-0.6c-0.8-0.6-1.1-1.7-0.8-2.7c0.3-1.4,2.1-1.4-0.1-2.3
						c-1.1-0.5-2.4-0.6-3.6-0.4c0.1-0.2,2-0.7,1.2-0.7s-4.4-0.2-4.8-1.7s1-1.6,1.8-1.7s0.5-0.3-1.6-1.4s-5-2.2-5-2.2
						C721,16,722.2,16.1,721.5,16.5z M741.5,27.2c-1.5,0.3-2.8,1.1-3.7,2.3c-1.2,1.1-2.4,2.1-3.8,3c-1.1,0.6-0.8,0.8,1,1.3
						s5-0.8,5.9-0.8s1.6,1,4.5,0.7s7.2-0.6,5.1-1.7s-1.4-0.6-3.7-1.9c-1.7-0.9-3.5-1.3-5.3-1.4c0,0,4.8-1.2,3.7-1.2
						S741.6,27.2,741.5,27.2L741.5,27.2z M618.5,9.8c-2.8,0.7-1.8,1.1-3.6,2.1s-0.6,1.3,3.3,0.6c2.3-0.3,4.5-0.9,6.6-1.8
						C627.3,9.9,622.6,8.7,618.5,9.8z M624.6,14.8c-2.6,0.8-1.9,1.7-1.2,2.4s2.6-0.4,3.1,0.4s0.7,0.4,3.2-0.7s1.5-0.8,0.6-2
						S629.2,13.4,624.6,14.8L624.6,14.8z M610.1,14.2c-1.7,0.6-1.7,0.5-0.1,1s5.5,1,7.5,0s1.8-0.7-0.7-1S612,13.6,610.1,14.2z
						 M585.4,16.4c2.4-0.2,4.7-0.2,7.1-0.1c2.1,0.2,1.3,1.4-2.5,1.7s0.4,0.7,3.1,0.6s1-1.7,3.2-2.2s3.7-0.2,6.4-0.9
						s-1.5-1.3-4.7-1.3s-4.2,0.2-6.9,0.1s-4.8,0.7-7.6,1C577.9,16,582.8,16.5,585.4,16.4L585.4,16.4z M605.8,16.9
						c-2.3,0-7.8,0.9-3.2,1.2s4.3,0.5,6.2,0S608.2,16.9,605.8,16.9L605.8,16.9z M621.9,17.6c-3.3-0.8-3.3-0.5-5.8-0.4
						s-3.5,1.2-1.9,1.7c1.3,0.4,2.7,0.4,4.1,0.1c1.3-0.2,1.3-0.4,0.4-0.7S623.8,18,621.9,17.6L621.9,17.6z M635.6,14.7
						c-2.5,0.2-2.6,0.5-2.9,1.1c-0.3,0.6,0.4,0.5,3,0.2c1.9-0.1,3.8-0.5,5.6-1.2c1.7-0.7-0.4-2.3-0.4-2.6s-2.4,0.9-3.1,1.3
						S638.5,14.5,635.6,14.7z M440,116.1c-1.3,2.5-3.3,3.6-0.9,2.9s4.9-2.8,4.8-1s-2.5,1.6-1.8,3.3s0.2,1.6,4.3,2.3s0.8,0.4,1.8,2.1
						s1.7,2.2,0.6,2.7c-1.1,0.5-4.2-1.6-4.4-0.7c-0.2,0.9,0.4,1.5,1.2,2.7s-0.5,1.9-2.9,2.7s-0.3,1.3,1.5,1.2s6.4-0.7,5.6,0.5
						s-3-0.2-4.5,1.7s-7.4,3.5-4.3,3.4s2.6-0.7,11.6-1.6s2.8-0.1,8.7-1.4s4-1.6,0.8-1.3s2.1-2.3,1.4-4.7s-2.9-0.1-4.3-1.7
						s-1.2-2,1.5-1.4s2.4-0.4-2.7-2.7s-1.9-1.9-4.3-3.8s-6.3-1.7-6.3-1.7c1.1-0.5,2-1.2,2.7-2.1c0.8-1,1.6-2,2.3-3
						c1.1-1.7-1.1-1.6-3.8-1.1s-3.6,0.6-3-0.1c0.6-0.8,1.4-1.5,2.2-2c1.3-0.9,1.5-1.4-0.8-1.1c-1.6,0.2-3.1,0.5-4.6,1
						C439.2,112.3,441.3,113.7,440,116.1z M433.7,121.9c-4.1,1.2-3,1.9-2.3,2.3s1.9-0.4-1.9,1.2s-3.9,3.3-1.9,3.6s1.8-0.8-0.4,2
						s-3.6,4.8,0.8,4.1s5.5-2.3,7.6-2.5s2.5-1.4,2.5-3.1s-1.4-1.8,0.3-3.3s1.8-3-1.5-3.8S436.3,121.2,433.7,121.9z M485.3,161.7
						c-0.2,0.4,0.3,1.5-1.4,2.2s0.8,1.4,1.3,2.1s1.2-2.4,1.1-3.9S486,160.5,485.3,161.7L485.3,161.7z M484.5,167.6
						c-2.7,0.9-2.9,1.6-3.2,3s2.2,0.3,1.5,1.6s0,1.9,2.8,0.7s1.2-2.3,1.6-3.8S488,166.4,484.5,167.6z M526.2,183.2
						c-2.4-0.2-3.4,0.9,0.6,1.2s5.9,0.4,7.4,0.1s0.2-0.1-1.8-1S529.2,183.4,526.2,183.2z M548.8,184.1c-3.3-0.5-2.4,2.3,1,1.9
						s2.1,0.2,3.6-1.6S552.3,184.6,548.8,184.1L548.8,184.1z M467.3,170.9c-2.7,0.3-2.9,0.9-0.8,1.3s1.8-0.1,3-0.7
						S468.5,170.8,467.3,170.9L467.3,170.9z M306,136.4c-2.3,1.3-4.3,3.1-5.8,5.2c-2.3,3-2.1,2.6-4.3,4.3s-1.1,1.3,5.8,2.2
						s6.4,1.7,8,1.4s1.9,0.6,1.9,1.6s1.5,0.4,2.2-1.2s-0.7-4.4-2.1-6.1s-1.8-1.6-4-1.2s-1.5-0.4-2.3-1.6s-2.1-0.3-0.2-2.2
						S307.6,135.5,306,136.4L306,136.4z M93.5,133.1c0,1.6,2.3,4.3,4.1,5.1s1.4,0.4,0.6-1.5s-0.2-1.9-0.5-3.1S93.5,132.5,93.5,133.1
						z M105.2,141.7c1.3,1.2,2.7,2.1,4.3,2.9c1.8,0.9,3.7,1.5,5.6,1.8c2.6,0.5,3.7-0.2,2-1.2s-0.3-0.9-3.2-1.4s-3.6-0.3-5.1-1
						S104.1,140.9,105.2,141.7z M40.2,124.1c-1.9-0.3-2.7-0.4-4,0.4s-1.7,1.4-1,2.2s0.3,0.4,2-0.4s0.9-0.9,3-1.3s1.7-0.9,1.7-0.9
						C41.3,124.2,40.7,124.3,40.2,124.1z M39.5,122.3c-1.3,0.6-1.7,1-0.3,0.8s1.2-0.8,2.2-0.7s1.2-0.1,1.2-0.1
						C41.6,122,40.5,122,39.5,122.3L39.5,122.3z M2.7,118.1c-1.8,0.6-3.4-0.1-2.3,0.4c1.2,0.5,2.4,0.8,3.7,0.8
						c1.2-0.1,1.9-0.1,1.5-0.5s-0.6-0.5-0.6-1S4.4,117.5,2.7,118.1z M592.1,290.4c-2,3.2-6.3,1.6-9.7,4s-2.9,1.6-0.3,4.9
						s-2.1,2.9-3.3,6.7s1.4,3.1,2.8,6.3s2,2.3,4.6,1.8c1.5-0.2,3-0.7,4.4-1.3c0.5-2.4,1.2-4.7,2.1-7c1.7-4.2,2.9-7.2,3.2-9.9
						s0.6-4.7,1.5-3.9s1,0.9,1-0.5s-1-5.1-2.7-6C592.7,284,594.1,287.2,592.1,290.4z M595.1,73.5c-2.8,0.4-4.1,1.7-2.1,2.1
						s1.8,0.2,5.2-0.6C601.5,74.2,597.8,73.1,595.1,73.5L595.1,73.5z M647.2,37.5c-1-1.1-1.8,0.3-11.6,3.4s-9.7,0.4-18.8,5.6
						s-7.1,4.5-7.7,7.6s-2.7,1.8-3.5,4.6s-5.5,3-3.2,5.3s5.4,3.7,10.3,4.7c4.9,1,6.3-0.1,5.2-0.4s-4.8-4.5-4-9.2s3.2-4,5.3-5.8
						s7.7-6.3,11.3-7.9s12.9-3.6,17.6-4.8c0.1,0,0.3,0,0.4-0.1C652.2,37.4,648.2,38.6,647.2,37.5L647.2,37.5z M620.8,69.2
						c-1.2,0.1-1.7,0.1,0.4,1.6c2.1,1.5,4,2.6,3.3,0.6C624,70,622.4,69,620.8,69.2z M655.8,54.9c-1.5-0.5-2.4-1.1-2.8-0.2
						s1.8,2,3.8,2.3S657.3,55.3,655.8,54.9L655.8,54.9z M289.2,143.6c-2-0.8-4.1-1.3-6.2-1.5c-1.5,0,0.3,1.2,2.8,2.1
						S290.6,144.1,289.2,143.6z M283.6,150.6c0.1-1.4-1.3,1.6,0.5,2.3s2.7,0.8,3.8,0s0.2-0.3-1.3-0.5S283.5,151.8,283.6,150.6
						L283.6,150.6z M981.2,102.1c-1.7,0.1-3.4,0-5-0.4c-0.1,0.9-0.4,1.7-1,2.4c-0.5,0.4-0.6,1.1-0.3,1.6c0,0-2.9-0.9-4.5-1.3
						s-3.2-0.1-4.2-1.9s-3.8-1.5-6.1-1.5c-0.8,0.1-1.6-0.5-1.7-1.3c0-0.3,0-0.5,0.1-0.8h-1.4c-1.4,0.1-1.1,2.4-2.9,3.1
						s-7.3,1.2-7.3,1.2s3.5,1.8,4.2,3.3c0.6,1.1,1.3,2,2.1,2.9c0,0-0.3,0.7-4.6,0.1s-4,0.6-8.5,1.9c-3.8,1.1-7.4,2.4-11,4.1
						c-1.3,0.7-1.4,0.3-5.3-0.4s-4.8,0.8-5.8,1.2s-0.6-1.7-0.6-1.7c-1.1,0-2.2,0.3-3.2,0.6c-18.2,6.6-5.7,6.2-6.2,7.6l-1.9,5.1
						c-2.7,5.7-4.5,2.7-6.8,7.2c-7.2,14.3-11.3-2.2-11.3-6c0-2.3-0.7-5.3,1.4-6c17.9-5.9,1.7-0.8,18.4-9c5.4-2.6,2.5-4.2,3.7-5
						c1-0.5,2-0.9,3.1-1l-3-0.2c-3-0.2-3,0.3-5.4,2.1s-4.2,2.1-3.7,0.7s0.6-2.8-1.2-2.1s-2.5,0.6-5.8,1.1c-3.6,0.4-7,1.9-9.8,4.2
						c-3,2.6-1.3,2.3-0.3,3s-4.7,0.5-7.4,0.3s-1.3-0.5,0.3-0.9s-2.4-0.7-5.9-1.2s-2.2,0.4-4.2,1s-2-0.5-3-0.7s-5.7-0.4-8.9-0.6
						s-3,0.2-3.9,0.9s-7,4.6-9.6,6.8s-5.9,2.6-8.9,4.6c-3,2-3.4,1.9-1,2.2s2.7,0.2,3.1,1.8s1.5,2.1,4.1,2.1s1.8,0.5,2.3-0.9
						s-0.6-3,1.5-1.7s3.9,2.1,4.5,3.9s-0.2,3-1.3,5.9s-1.5,7.1-3,9.2s-2.7,3.7-4.4,6s-9.8,8.2-11.7,8.7s-3,0.6-3.9-0.6
						s-1.5-1-3.6,0.4s-3,2.1-3.8,4.2s-2.6,2.1-4.4,3.7s-2.3,1.2-1,3s3.6,3.7,3.8,5.4s-1.1,4.3-2,5.4s-5,1.6-5,1.1
						c0.1-1.6,0.1-3.1,0-4.7c-0.2-1.5-1.8-1.5-1.2-2s2.9-1.3,1.2-2.4s-2.9-0.2-3.6-1.5s0.3-2.4-0.1-2.9s-1.6-1-4.1-1.2
						s-3,1.6-3.6,0.1s0.3-1.7-0.9-2.3s-2.1-0.2-5,1.5s-3.4,1.4-5.8,2.1s-2.4,1.2-1.8,1.8s2.6,3.1,4.2,3.4s2.9-0.5,5.4-0.5
						s3,0.3,2.4,0.9s-2.4,1.4-5.5,3.6s-2.2,1.8-1.1,2.7c1.4,1.1,2.6,2.3,3.7,3.8c1.1,1.7,0,2.4-0.2,3.4c-0.4,1.6,0.3,3.3,1.7,4.1
						c2.1,1.6,0.6,1.1,0.4,1.6s-3.8,5.1-5.3,7.4s-1.6,2.5-6.8,5.1c-3.2,1.8-6.7,2.9-10.3,3.2c-2.2,0.3-4.5,0.8-6.6,1.4
						c-1.4,0.4-0.9,1.3-1,1.8s-1.5,0-1.3-0.7s0.1-1.4-0.6-1.6c-1.8-0.6-3.7-0.3-5.3,0.7c-2.3,1.6-5.1,1.7-6.1,3.7s-0.8,1.3,0.3,2.2
						s6.1,4.3,7.3,6.1c1,1.5,1.6,3.4,1.5,5.2c0.1,2-5.8,5.7-8.3,6.9s-3.1,2.4-2.7,0.5s-1.1-3-3-4.4s-7.4-2.6-8.5-2.8
						s0.4-1.3-0.3-1.3s-2.4-0.3-2.2,1.6s-1.7,1.3-2.1,3.1s-0.9,3.8,0.8,3.6s1.3,1.6,2.6,3.6s0.8,0.9,4,2.8s2.4,1.5,3.1,3.4
						s0.5,2.9,2.1,4.6s1.7,2.1-1,1.1c-2.2-0.6-4.2-1.8-5.8-3.3c-1-1.2-1.7-4.1-2.3-5.6s-5-3.2-6.4-4.3s-0.6-1.9,0.2-4.3
						s-0.3-4.8-0.6-6.2c-0.6-2.4-1.6-4.8-2.7-7c-0.8-1.4-0.5-1.2-1.7,0s-2.2,2-3.4,2s-3-0.1-2.8-0.7s1.4-2.7,1-3.5s-1.5-3.3-3.2-4.2
						c-2-0.9-3.6-2.4-4.7-4.2c-1.1-2.1-1.3-1.5-3.4-0.4s-6.8,1.2-9.1,1.3s-0.4,0.9-1,1.7s-3.2,1.8-8.6,5.8s-6.2,4.1-7.6,4.5
						s-2.3,0.3-2.2,1.9c0.2,1.3,0.2,2.7,0,4c-0.2,1.1-0.7,2.1-1.5,3c-0.6,1.1-1.1,2.3-1.4,3.5c-0.2,0.9-1.4,1.9-3.1,2.8
						s-1.8,0.7-2.6-0.6s-5-6.4-8.3-11.1s-2.6-5.6-2.9-7c-0.3-3.4-0.4-6.8-0.2-10.3c0.1-0.4-1.6,1-2.1,1.6s-0.5,1.5-2.4,1.6
						c-1.5,0.3-3-0.1-4.1-1.1c-1.8-1.3-2.6-2-2.3-2c1.2,0,2.4-0.2,3.6-0.6c1.2-0.4,0.8-0.9,0.8-0.9s-1.3,0.1-2.8,0.2
						s-0.8-0.3-2.9-0.8s-2.5-0.6-2.8-1.3s-0.8-1.6-1.1-2.1s-0.5-0.5-0.9-1.1s-1.3,0.1-3.5,0.1s-1.7,0.1-4.4,0.9s-3.1,0.5-6.1,0.4
						c-2.3-0.2-4.5-0.6-6.6-1.4c-1.3-0.3-2.7-0.4-4-0.4c-2.2-0.2-1.8-1-2.3-1.7s-1.5-0.8-4.4-0.7c-1.6,0.2-3.1,0.1-4.7-0.3
						c-1.7-0.3-1.8-0.7-3.2-1.7s-0.9-0.2-1.8-0.7c-1.1-0.6-2-1.5-2.5-2.6c-0.7-1.4-0.6-1.7-1.4-2.3s-0.8-0.5-3.3-0.5
						s-1.4,0.1-1.7,0.3c-0.7,0.5-1.3,1-1.8,1.6c-0.7,0.6,0.6,1.5,1.6,2.4s0.1,0.8,1.8,2.1s1.1,1.2,2.3,3s1.9,2.3,2.2,2.8
						s0.5-0.2,0.8-0.7c0.1-0.7,0.1-1.5-0.1-2.3c0.4,0.6,0.7,1.3,1,2c0.5,1.3,0.1,1.3,0.5,2.1s0,0.7,2,0.7c1.8,0.1,3.6,0,5.4-0.3
						c2.2-0.4,3.2-1.8,4.2-2.2s1-1.9,1.7-1.8s0,1.8,0.7,2.8s0.8,0.7,2.3,1.1s2,0.7,3.5,1.1s0.5,0.5,1.4,1.6s0.8,0.5,1.6,0.9
						s0.5,0.1-0.1,1.4s-0.7,1.3-2.1,2.4s-1.4,0.7-1.6,0.7s-0.6-0.8-0.6-0.8c-0.5,0.8-0.9,1.8-1,2.8c-0.1,1.5,0.7,1-1.8,1.7
						s-4,1-5,1.6s-1,1.4-1.5,1.8s-1.3,0-3,0.5c-1,0.2-1.9,0.5-2.7,1.1c-1.4,0.8-0.2,0.7-2,1.2s-5.2,1.6-6.8,1.8s-1.3,0.4-1.8,0.9
						s-0.5,0.7-2.6,0.9c-2.1,0.1-4.1,0.4-6.1,0.9c-1.3,0.5-3.2,1.5-4.6,1.3s-1-0.2-1.5-1.1c-0.5-0.9-0.8-2-0.9-3
						c-0.3-1.8-1-3.5-2.1-5c-1.2-1.4-1.2-1.5-2.4-3s-2.1-2.7-3.3-3.3c-0.8-0.3-1.5-0.6-2.2-1c-0.5-0.4-0.2-1.9-0.8-3.1
						c-0.4-1.2-1-2.2-1.8-3.1c-1.2-0.8-2.3-1.8-3.2-2.9c-1.2-1.5-1.2-1.6-2.9-3.9s-2.3-2.5-3.3-4.1s-0.4-1.2-0.8-2.1
						s-1.4,1.5-2.3,1.9s-1.3,0.2-1.9-1.1s-1.2-2.5-1.7-2s-0.9,1.1-0.2,2.5s1,1.1,1.9,2.5s3.4,4.8,4.4,6.2c0.7,0.8,1.2,1.8,1.5,2.9
						c0.5,1.4,1.4,2.6,2.7,3.3c1.3,0.9,1,0.4,1.6,1.9c0.4,1.3,0.5,2.7,0.4,4c0.1,0.9,0.8,1.3,2.3,2.2s0.8,0.6,1.4,1.5
						c0.7,1,1.3,2.1,1.8,3.2c0.3,0.9,1.1,1.7,2,2s1.8,0.6,2.7,0.8c1.2,0.3,0.8,0.5,1.6,1.2s2.3,1.3,3.3,2.4s0.3,0.8,0.3,1.9
						s-0.5,0.6,0.1,1.2c1.2,0.8,2.5,1.5,3.9,2c2,1,0.4,0.3,2.2,0.3c1.4-0.1,2.8-0.3,4.1-0.7c1.9-0.3,4.4-0.8,6.8-1.2s4.7-0.7,6-1
						s1.3,0.7,0.3,2.1s-1.4,2.7-2.2,3.9s-1.1,1.3-1.7,2.3s-4.5,4.9-5.3,6.2c-0.8,1.2-1.9,2.3-3,3.3c-1.2,1-5,2.9-6.7,3.9
						s-1.3,1-2.6,2.2s-5.3,4.5-6.3,5.6c-0.9,0.9-1.7,1.8-2.5,2.7c-0.8,1.1-3.1,2.8-3.2,3.6s-1.4,0.9-0.5,1.7s1.5,0.8,1.8,1.8
						s-1.1,2-0.2,3.6s0.3,0.5,1.6,1.8s1.3,2.2,1.4,4.1c0.2,1.7,0.2,3.5-0.2,5.2c-0.4,1.1-1,2.2-1.6,3.2c-0.6,1.1-4,1.9-5.9,2.5
						s-1.9,0.4-2.8,1.1s-3.5,2.4-4.4,3.6s-1.5,1.1-1.2,1.8c0.6,1.1,1.3,2.1,2,3.2c0.9,1.4,0.3,1.3,0,2.5s-0.2,1-0.4,2.5
						s-2.7,1.5-5.5,2.3s-1.8,0.4-2.1,1.5c-0.2,1.5-0.3,3-0.2,4.5c-0.1,1.3-1,0.8-2.5,2.3s-2.1,2.3-3.8,4.2s-1.5,1.6-3.5,2.8
						s-3.7,1.5-4.6,2.8s-1.9,0.5-6.3,1.5s-1.2,0.5-5.4,0.8s-5.7,0.6-7.9,0.9s-1.9-0.1-3.3-1.1s-1.6-1-2.2-1.9s-0.2-1.1-0.4-2.7
						c0-1-0.4-2-1.2-2.6c-0.7-0.8-1.2-1.8-1.7-2.7c-0.6-1.1-1.4-2.2-2.3-3.1c-1-1.1-1.3-0.7-2.2-1.4c-0.7-0.5-1.1-1.4-1.2-2.3
						c-0.2-1-0.5-3.3-1-5.7s0-1.1-0.6-2.1c-0.6-1.2-1.3-2.4-2.1-3.6c-0.6-1-1.3-1.8-2-2.7c-0.8-0.9-1.5-1.9-2.1-2.9
						c-0.9-1.5-1-0.8-1.1-1.4s0.5-1.6,0.5-2.6c0.2-1.2,0.5-2.5,0.9-3.6c0.4-1.5-0.5-1.5,0.4-2.5s1.7-2,2.4-3.2
						c0.5-0.8,0.7-1.8,0.5-2.7c0-1.5-0.2-1.4-0.9-2.6s-0.9-2.7-1.6-4.7c-0.4-0.9-0.7-1.8-0.9-2.7c-0.2-1.2-0.6-2.4-1.2-3.6
						c-0.5-1.1-0.8-0.6-2-1.3s-0.5-0.2-1.5-1s-0.8-1-1.8-1.8c-0.7-0.5-1.4-1.1-1.9-1.8c-0.8-0.9-0.4-0.4-0.3-1.9
						c0.2-2.1,0.6-4.2,1.1-6.3c0.4-1.7,0.5-1.6-0.5-2.4s-1.6-1.8-2.3-1.9s-2.5,0.2-5,0.1s-2.4-0.4-3.5-1.3s-2.5-2.1-3-2.5
						s-1.4-0.3-5.7-0.1s-1.7,0.3-4.6,0.6s-4,1.4-6.2,1.9s-2.9,0.4-6.7-0.1s-5.8,0.6-7.8,1.2c-1.4,0.5-3,0.4-4.4-0.4
						c-1.4-0.8-2.9-1.5-4.5-2.1c-2.2-0.8-1.7-1.2-3.9-2s-1.5-0.8-3.3-2s-1.9-2.5-3.2-3.7s-2.3-3-4-4.4s-3.3-4-4.1-4.9
						s-1.5-0.9-1.4-1.3s1.6-2.7,2.3-3.8s0.9-1,1.1-1.8s-0.4-2.9-1-4s-1.4-3.6-1.9-4.8s0.3-1.2,0.9-1.8c1.3-1.3,2.5-2.6,3.6-4
						c1.5-2,2.4-3,3.2-3.9s2.6-3.8,3.8-4.6c1.8-1.1,3.6-2,5.6-2.8c1.3-0.5,2.4-0.7,2.6-1.2s0.8-3.9,1.1-5.4s-0.1-2.3,1.4-2.8
						s3.9-1.6,5.1-2.1s1.4-1.2,2.1-2.3s0.9-2.4,1.9-2.9s0.7,0.2,1.9,0.8c0.6,0.4,1.3,0.6,2,0.7c0.6,0.1,1.1-0.3,2.6-0.4
						c0.9-0.1,1.7,0.1,2.5,0.5c0.9,0.3,0.4,0.3,2.9-0.8s5.1-2,7.8-2.6c2.3-0.7,4.6-1.2,7-1.5c1.5-0.1,0.8,0,2.5,0.5s1.8,0.7,2.1,0.3
						s1.5-1.3,2.2-1.3s1.5,0.3,3.4,0.5c1.1,0.2,2.3,0.2,3.4-0.2c0.7-0.3,1.7-0.8,1.9-0.8s1.8,0.4,3,0.7s1.3,0.4,1,0.6
						c-0.5,0.4-0.9,0.9-1.3,1.5c-0.6,1-0.3,0.5,0.3,1.5s1,1,0.7,1.7s-1.5,1.5-2.3,2.2s-0.7,0.9,1.5,1.7c1.3,0.6,2.7,1.1,4.1,1.5
						c2.4,0.8,2.5,0.5,5.4,1.1s2.5,0.7,3.5,1.5s1,1.6,2.8,2s3.5,0.4,4.5,0.9c1,0.6,2,1,3.1,1.3c1.3,0.2,1.3,0.3,2-0.4
						s1.2-1.3,0.9-1.7s-1-0.9-0.8-1.2c0.5-0.7,1-1.4,1.6-2.1c0.3-0.4,1.2-0.5,3.3-0.6s3.6-0.3,3.9,0.6s0.3,0.5,1.9,0.9
						s1.8,0.5,3.1,0.9s0.7,0.9,1.4,0.9c1-0.1,2.1,0,3.1,0.2c2,0.6,4,0.9,6.1,1.1c1.3,0.1,2.6-0.1,3.8-0.6c0.4-0.1,2.1-1.6,3.2-0.6
						s2.4,1.1,5,1s2.6-0.4,3.2-0.9c1.1-1,2-2.2,2.7-3.5c0.5-1.2,1.9-3.9,2.3-5.1c0.2-1,0.2-2-0.2-2.9c-0.1-0.7,0.1-1.4,0.5-2
						c0.4-0.8-1.3-0.3-1.9-0.2s-0.8-0.3-1.5-0.4s-1.3-0.2-1.7,0.6s-0.2,1.2-2.7,1.1s-2-0.2-2.8-0.8c-1-0.6-2.1-0.9-3.3-1
						c-1.1-0.2-1.2-0.2-1.3,0.3s-0.1,0.8-0.9,1c-1.4,0.1-2.8-0.1-4.1-0.6c-1.3-0.4-2.4-1-3.5-1.8c-1.5-1-1.3-1-1.9-2.6
						c-0.5-1.1-0.6-2.3-0.3-3.4c0.3-0.5,0.7-0.6-0.5-0.4s-1.9,0.4-1.2-0.8c0.5-0.8,1.3-1.4,2.3-1.4c1.2-0.2,2.4-0.2,3.5-0.3
						s2.2-0.4,3.2-0.8c0.5-0.2,1.6-0.4,1.1-0.5s-2.2-0.2-2-0.6s0.5-0.3,1.4-0.4s2.3-0.1,3.5-0.2s1.9,0.1,2.3-0.4
						c0.5-0.7,1.1-1.3,1.8-1.7c0.9-0.4,1.9-0.2,4.4-0.3s2.1,0.4,2.9,0.8s1.3,0.2,2.4,0.4s0.4,0.6,1.2,0.8s2.3,0.5,4,0.9
						s0.6,0.2,2.8,0.2c1.3,0.1,2.6,0,3.8-0.2c1.3-0.2,2.5-0.6,3.7-1.3c1.2-0.6,0.4-2-0.1-3s-2.4-1.7-3.3-2.2s-2.8-2-3.8-2.6
						c-1.1-0.5-2.2-0.9-3.3-1.2c-1.1-0.4-3.1-1.2-3.3-1.8s0.4-0.6,2.1-0.9s1.1-0.5,1.4-1.1s0.5-0.6,1.8-1s-1.6-1.1-2-1.5
						s0.9-0.3,2.3-0.5s1.5-0.7,1.7-1.1s0.1-0.6-1.5-0.6c-2.1,0.2-4.2,0.5-6.3,1c-2.7,0.5-1.5,0.5-3.1,1.4s-1.7,0.5-1.5,1
						s0.3,1,2,1.6s1,0.6,1.4,0.7s1.6,0.2,1.1,0.3s-1,0.7-1.7,0.7s-1.1,0.5-2.3,1.1c-0.9,0.4-1.8,0.6-2.8,0.7
						c-0.9,0.1-1.6-0.1-1.5-1.2s-0.5-0.4-1.5-0.6c-0.5-0.1-0.9-0.3-1.4-0.6c0.7-0.2,1.4-0.4,2-0.7c0.8-0.2,1.5-0.8,1.9-1.6
						c0.5-0.9-1.1-0.4-2.2-0.5s-0.8-0.2-1.9-0.3c-0.6,0-1.1-0.3-1.5-0.7c0.5,0.1,1,0.1,1.4,0.1c0.9-0.1,0.7-0.3,1.1-0.4
						s0.6-0.3,0.3-0.3s-1.4,0.1-2.2,0s-1.6-0.1-2.3,0c-1.1,0.1-0.7,0.4-1.5,0.8c-0.5,0.2-1,0.5-1.3,1c-0.4,0.5-0.6,0.4-0.8,0.8
						c-0.2,0.6-0.3,1.2-0.3,1.8s-0.2,0.8-0.7,1.3s-0.5,0.3-1.4,0.6s-0.3,0.5-0.4,1.1c-0.2,0.5-0.4,1.1-0.5,1.6
						c-0.1,0.8-0.5,0.8-1.2,1.4s-1,0.5-1.1,1.1s-0.1,1.3,0,1.9c0.2,1.1,0.6,0.8,1.8,1.9s1.8,0.7,1.4,1.3s-0.3,0.4-1.8,0.2
						c-1-0.2-2,0.1-2.8,0.8c-1.1,0.7-1.3,1.1-1.8,1.4s-0.4-0.5-0.6-0.9s-2.7-0.5-4.3-0.8s-2.1-0.5-2.6-0.5c-1,0-2,0.2-2.8,0.6
						c-1.8,0.7-1.4,1.1-1.2,2s1.5,1.1,1.1,3.2s1.5,1.1,2.3,2.4s0.1,1.2-0.4,1.3s-1,1.3-1.3,2.3s0,1.2-0.4,1.1
						c-0.7,0.1-1.3-0.2-1.8-0.7c-0.8-0.9-1.5,0-1.6-0.6s-1.2-1.3-0.8-2.5s1-1.3-0.4-1.9s-1.1-0.7-1.8-1.9c-0.5-1-1.2-1.9-2.2-2.6
						c-1.3-1.1-1.2-0.8-0.8-2s0.6-2.6-0.2-3.4c-2.1-1.7-4.4-3-6.8-4c-2.7-1-3.3-0.2-4.5-1.9s-1.8-3.4-3.8-4.4s-1-1.1-2.9-0.6
						s-2,0.7-1.8,1.1c0.4,0.6,0.5,1.3,0.3,2c-0.3,1.1-0.7,0.7,1.3,1.6s1.2,0.7,2.2,2.2c0.5,1,1.2,1.8,2,2.5c0.8,0.9,1.9,1.4,3.1,1.5
						c2,0.3,1.7-0.1,2.2,0.3s-1.4,0.5-1,0.6c0.8,0.5,1.6,1,2.5,1.4c1.7,0.7,3.4,1.5,3.8,2.1s1.9,2.8-0.2,1.2s-2.2-0.9-2.8,0.2
						s0.6,2,0.5,2.8s-1.1,0.5-1.8,1.2s-1,1.4-1.8,1.9s-0.5-0.5-1-0.5s-0.6,0.4-1.2,1.2s0,1.1,0.2,2.1s0.6,1.1-0.9,1.1
						s-1.2-1.1-2.6-1.8s-2.3-0.4-3.5-1s0.5-0.7,3.5-0.9s3.4-0.5,4.3-1s0.6-0.6,1.6-1.6s0-1.4-0.7-2.6c-0.6-0.9-1.4-1.6-2.4-2
						c-0.8-0.5-1.6-1-2.3-1.6c-1-0.6-2.1-1-3.3-1.1c-1.5-0.3-1.2-1.2-2.1-1.5s-1.7-1.1-3.6-2.4s-1.2-2.2-2.1-3.3
						c-0.8-1.3-2.2-2-3.7-1.9c-1.9,0-3.4,0.9-5.3,2.3s-1.5,2-3.8,1s-3-0.9-4.6,0s-1.9,1.9-1.9,3.8s-1.9,1.1-3.4,1.6s-2.9,1.9-5.2,5
						s0.2,1.6-0.3,2.7s0.2,1.9-2,3.3s-1.2-0.2-2.5,0.9c-1.7,1.4-3.9,2.1-6.1,1.8c-3-0.3-2.2,0.6-4.1,0.9s-3,0.8-2.5-0.7
						s0.1-1.3-3.6-1.2s-5,0.8-4.6,0.4c0.5-0.8,0.8-1.6,0.9-2.5c0.4-1.5,1-2,0.4-2s-1.8,0.2-0.9-2.4s1.2-3.1,0.8-4.6s0.1-3.6-0.3-4.5
						s1-1.8,0.3-2.3s-1.4-1.1-0.9-1.1c1.7,0,3.3,0.2,5,0.4c2.6,0.3,5.2-0.3,6.7-0.2s4.7,0.6,7.9,0.9s3.1-0.3,2.8-3.6
						s0.2-4.9-0.7-5.6s-2-0.6-3-1.5s-0.3-2.2-2.5-2.7s-4.7-0.1-3.5-0.4s1.7-0.4,0.4-1.1s-1.6-1.4-0.6-1.5s3.7-0.1,3.7-0.1
						s0.2,0.9,1.7,0.5s3.3-0.8,2.9-1.5s-1.1-1.5-0.9-1.5c1.1,0.7,2.5,1.1,3.8,0.9c3,0,2.8-0.3,2.6-1.2s2-0.9,3.5-1.6
						s-0.6-1.6-0.2-2.3s2.1-1.1,5.2-1.3s2.5-0.5,2.2-0.8s0.1-1.4,0.3-2.8s-0.2-1.9,1.4-2.6s1.1-0.4,4.4-0.6s1.3-0.7,1.8-0.8
						s4.5-0.8,5.2-1s0.6-0.2,0-1.2s-1.5-1.6-2.2-6.2s-0.6-4.6,3.4-5.5s3.1-0.6,2.8,2s-2.1,2.6-2.5,4.5s-0.1,3.1,1.6,5.1s1.5,1,5.1,1
						s2.8,0.6,5.2,1.2s1.6-1.1,3.9-1.6s1.8,0.4,7.3-0.2c2.1-0.2,2.8-0.3,2.9-0.3c-0.2,0-0.8,0-0.2-0.2c1.3-0.5,1.6-1.5,3.4-1.6
						s3.1,0.4,3-1.6s-1.1-1.7-0.8-3.2s0.4-0.9,0.6-2.1s-0.2-1.4,2.1-1.9s0.7,1.5,3.5,1.9s2.4,0.7,2.9-0.8s2-3.6,0.6-3.4
						s-1.7-0.1-3-1.5s-2.2-1.7-1.3-1.7c2.7-0.3,5.4-0.5,8.1-0.5c4.2,0.1,5.4,0.4,5.7,0.1s-0.7-0.6,0.7-1.3s6.2,0.3,5.4-0.3
						s-4.9-1.4-7.7-1.1s-9.6,0.9-10.6,0.8c-1.2-0.1-2.4-0.4-3.4-0.9c-0.5-0.4-2-0.6-2-2.4s0.9-2.4-0.6-4.1s2.6-3.1,5.4-4.9
						s2.1-3.3,3.8-3.4s2.3-0.7,1.5-1.3s-3.8-2.6-5.2-2.8s-3.6-1.4-5.8,1.4s0.2,3,0.6,4.4s-3.1,2.5-5.8,3.8s-3.6,1-4.4,4.4
						s-1.6,3.5,1.3,4.6c3,1.2,3.5,1.7,2.2,2.8s-4.2,1-6,3.3s-1,3.5-1.8,4.6s-3,1.5-3.6,2.6s-0.6,3.1-3.4,2.8s-1.2-2.9-2.4-4.2
						s-2.2-2.4-3.6-4.1s-0.3-3.2-1.7-4.1c-0.9-0.6-1.5-1.5-1.7-2.5l-0.5,0.8c-0.5,0.8-0.2,1.3-3,3.6c-2.5,2-5.7,2.7-8.8,2
						c-2-0.6-1.7-2-1.7-3.7s-0.5-4.1-0.1-6.8s1.5-2.5,5.8-4.3s4.3-1.7,5.4-2.9s4.1-2.8,5.8-3.9s4.8-5.1,6.4-7.9s4.5-4.6,7.4-7.7
						s8-5.8,14.5-7.7c6.5-2,5.4-2.2,6.9-3.7s2.2-0.6,4.7-1s2.2,0-0.4,1.8s-3.7,3.7-1.5,2.3s3.8-3.1,7.2-3s2,0,5.3,1.1s3.8,1.2,2,2
						c-1.6,0.5-3.3,0.8-5,0.6c0,0,1,1.8,4.1,2s4.7-1.7,6.7-1s2.5,1.3-0.2,1.1c-2.7-0.2-3.5,1.1-0.2,1.9c2.6,0.8,5.3,1.2,8.1,1.4
						c4.4,0.4,6.3,2.7,9.7,3.7s7.3,0.2,6.2,2.3c-1.1,2.2,0.9,4.3-5,5.3s-5.7-0.3-10.5-1.4s-8.3-2.1-8.3-2.1c1.1,1,2.3,1.9,3.5,2.7
						c2.2,1.5,2.5,2.9,2.2,5.6s-1.3,3.4,2.5,4.8s3.3,0.9,4.5,0.7s3.2-0.5,2.7-0.9c-0.6-0.7-1.3-1.3-2.2-1.6
						c-1.3-0.4-1.3-1.4-0.1-1.9s2.5,0.4,5.3,0.3s0-0.7,1.4-1.8s1.4-2.7,4.7-3.6s6.8,0.4,7.7-0.6s1.8-2.2,0-3.7s-3.3-2.1-2.2-2.8
						s3.4-2.7,4.4-1.6s3.7,2.3,0.3,2.1c-3.3-0.2-1,3.5,2,3.3s2.8-0.9,5.3-1.7s7.3-3.6,10.8-4.5c3.4-0.8,4.2-0.6,5.5-0.2
						s1.4,1.2,5.1,0.7s4.9-1.2,8.4-1.6s-0.2,0.9,1.4,1.3s1.8,0.7,3,0.1s5-1.5,3.3-2.5s-3-1.6-3-1.6s1.3-2,4.6-1.9
						c3.4,0.2,8.5,2.4,11.7,4c2.6,1.4,5,3.1,7.3,5c0,0,1.4-1.7,0.2-4.6s-4.2-2.2-4.2-5s-2.8-2-1.8-4s3.7-2.7,4.4-5.2
						c0.7-2.5,1.3-4.5,3.8-4.5s7.8,0.5,7.8,0.5c-0.2,2-0.9,4-2,5.7c-2,3.4,1,3.8,0.6,7.9s-0.6,4.6,0.8,5.6s3.9,2.1,3,3.9
						s-1.4,2.9-5,3.9s-8.1,0.4-6.5,1.2c2,0.9,4.1,1.5,6.2,1.7c2.4,0.3,1.2-0.1,3.1-1.2s6.2-3.3,6.1-4.4s-2.5-2.7-0.9-3.5
						s2.2-2,4.7-1s4.9,4.8,4.9,4.6c-0.3-2.3-1.6-4.4-3.4-5.8c-3-2.1-7.8-0.1-7.8-2s1.4-4.4,1-6.4s-1.4-4,0.4-5.8
						c1-0.8,1.7-1.9,1.9-3.1c0.5,1.2,0.5,2.5,0.2,3.7c-0.6,2.1,0.3,3.3,1.7,3.3s7.4,0.1,4.2-0.6s-4.2-1.3-1-2.6
						c3.3-1.3,3.1-0.4,7.9,0.4c4.8,0.8,5.9,1.4,7.5,1.3s1.4-0.2,0.8-1.2c-0.6-1.1-1.6-1.9-2.8-2.4c-1.5-0.7-2.5,0.2-3-0.9
						s-1.4-3.7-1.8-4.7s1.2-0.2,3.8-0.2s9.5-0.3,14.9-0.4s0.1-4.1-0.3-6.9s9.9-2.9,14.9-3.4s10.9-0.4,20.3-2s3.4-1.3,4.7-3.2
						s3.7-2.2,6.5-2.2s5.3,0.4,4.3,0.6s-4.2,1.4,0.7,2.1s3.6,0.7,1,1.3s-0.4,1.8,4.5,1.8s2-0.3,1.2-1.5s0.7-0.7,4.8-0.3
						s5.7,1,7.9,2.4s2.6,1.1,3.4,3.2s-0.1,1.8-3.5,3.7s-5.5,1.9-10.5,4.1s-3.8,3.4-6.5,4.9s-2,1.1,3.8,0s8.9-1.8,11.8-1.5
						s4.4,1,6.6,1c2.3,0.2,4.6,0.3,6.9,0.3c7,0,6,0,3.4,1.4s0.5,1.8,3.6,1.8s7,0.1,9.8-0.2s0.4-1.8,3.8-2s4.5-0.3,8.2-0.3
						s2.6,1.1,3.8,2s3,1.6,1.8,3.5s-1.8,2-1.1,4.5s2.6,3,4.8,3.4s2.2-2.3,4.4-3.3s2.6,1.9,5.1,1.5s5-0.3,7.4,0.3
						c2.3,0.6,4.7,0.7,7,0.3c3-0.5,2.1-1.3,1-2.6c-1.1-1.3-1.1-1.2,0.8-2.6s3.2-0.7,9.4,0.5s4.2,1.2,7.7,1.8
						c3.5,0.7,2.4,0.5,7.8,2.3s4.3,3.8,6.8,4.9s2.6,0,7.6-0.3s4.9,0.4,10.3,1.4s4,2.3,4,3.4s-1.5,1.9,1.8,2.5s4.7,1,7.6,0.5
						s0.3,0.5,6.7,0.6s4.2-0.5,6.2,0.4s2.4,2.9,5.5,2.6s2.9-0.2,1.6-2.1s-2.1-2.3-0.2-2.2s5.6,0.6,12.5,1.4s7.2,1.7,12.9,4.2
						s7.3,2.8,11.4,5c0.7,0.3,1.3,0.7,1.9,1.2c0.7,0.1,1.4,0.4,2.1,0.6c4.5,1.5,3.7,1,7.5,2.3c2.4,0.9,4.8,1.9,7.1,3.2
						C983.8,101.5,984,101.9,981.2,102.1z M608.6,155.8c0,0-0.4,0.4,1.8-0.9s-1-0.1-2.3-0.3s-1.7-0.7-1.3-1.9s-0.2-1.2-1.5-2.7
						c-0.8-0.2-1.6-0.1-2.2,0.3c-1.5,0.6-2.4-0.6-4.2-0.1s-3.8,0.3-5,2.2s-2.4,0.7-2.8,2.3s-3.8,2.4-3.8,2.4s1.4,0.9,2.4,1.9
						s0.3,0.3,1.3,3.3s1.8,2.7,3.2,3.1c1.2,0.4,2.5,0.9,3.7,1.4c0,0-1.3-0.6-1.3,1s-2.2,2.7-1.9,5s-3,4.5-0.4,4.7s1.8,1,4.5,1.5
						c2.8,0.6,5.6,0.9,8.5,0.9c4.1,0,1.8-1.1,1.3-2.8c-0.5-1.4-0.9-3-1-4.5c-0.2-1.8-1.1-1.3-1.8-2.4s0.3-1.8,2.2-1.8s2.2,0,1.1-1.3
						s-0.4-1.7-1.7-2.2s-1.8,1.8-1.8,1.8s-0.8-0.5-0.5-2.8s0.6-1.2-0.4-1.6s-1.5,0.1-2.8-1.4s-0.2-1.2-1.7-3s-0.7-0.9,1-0.9
						s0.8-0.3,0-0.8s-1.4-1.5,0.8-1.4s5,0.4,6,0.5S608.6,155.8,608.6,155.8z M310.6,74.3c-0.7,0.9,1.3,2.1,2.7,1.7s1.9,0,2.7-0.4
						c0.8-0.4,0.9-1.1-0.1-1.8s-0.6-1.1-0.7-1.1C313.4,71.9,311.4,73.4,310.6,74.3z M705.4,16c-2.2,0-4.6,0.1-2.6,0.6s1.2,2.9,5,1.5
						s3-1.4,5.7-2.2s1.1-0.4-2.1-1C709.5,14.6,707.6,16,705.4,16z"/>
				</g>
			</g>
		</g>
		<g class="st2">
			<path class="st3" d="M153.6,329.4c-18.5,0-36.7-3.6-53.8-10.8c-33.1-13.9-59.4-40.1-73.6-73c-14.5-34.1-14.5-72.6,0-106.7
				c7-16.3,17.1-31.1,29.7-43.6c12.7-12.5,27.6-22.5,43.9-29.4c51.8-21.8,111.6-10.2,151.5,29.4l-3,3
				c-25.1-24.9-59.1-38.8-94.5-38.7c-17.9,0-35.5,3.5-52,10.4C86,76.6,71.6,86.2,59.3,98.2c-25.4,24.7-39.6,58.6-39.5,94
				c-0.1,35.2,14,69,39,93.8c25.1,24.9,59.1,38.8,94.5,38.7c17.9,0,35.6-3.5,52.1-10.4c15.8-6.7,30.2-16.3,42.4-28.4
				c25-24.8,39.1-58.5,39-93.8V190H346v4.2h-54.7c-0.2,17.6-3.9,35-10.9,51.2c-7,16.3-17.1,31.1-29.7,43.7
				c-12.6,12.5-27.6,22.5-43.9,29.4C190,325.9,171.9,329.5,153.6,329.4z"/>
			<path d="M332.6,209.6l-3-3l15.4-14.2L329.6,178l3-3l18.8,17.4L332.6,209.6z"/>
			
				<radialGradient id="SVGID_3_" cx="-529.3169" cy="952.2433" r="1.0006" gradientTransform="matrix(56.99 0 0 -56.53 30409.0703 53943.0195)" gradientUnits="userSpaceOnUse">
				<stop  offset="0.18" style="stop-color:#000000"/>
				<stop  offset="0.24" style="stop-color:#242424"/>
				<stop  offset="0.36" style="stop-color:#5D5D5D"/>
				<stop  offset="0.48" style="stop-color:#8F8F8F"/>
				<stop  offset="0.59" style="stop-color:#B7B7B7"/>
				<stop  offset="0.7" style="stop-color:#D6D6D6"/>
				<stop  offset="0.81" style="stop-color:#EDEDED"/>
				<stop  offset="0.91" style="stop-color:#FAFAFA"/>
				<stop  offset="1" style="stop-color:#FFFFFF"/>
			</radialGradient>
			<path class="st4" d="M243.3,164.3c31.5,0,57-25.3,57-56.5s-25.5-56.5-57-56.5s-57,25.3-57,56.5S211.8,164.3,243.3,164.3z"/>
			<path class="st5" d="M276.4,130.8c14.4-14.2,14.6-37.5,0.4-51.9c-0.1-0.1-0.3-0.3-0.4-0.4c-14.7-14.4-38.2-14.4-52.9,0
				c-14.4,14.2-14.6,37.5-0.4,51.9c0.1,0.1,0.3,0.3,0.4,0.4C238.2,145.3,261.7,145.3,276.4,130.8z"/>
			<path class="st6" d="M249.9,144.8c-22.2-0.2-40.1-18.3-39.9-40.5c0.2-22.2,18.3-40.1,40.5-39.9c22.1,0.2,39.9,18.1,39.9,40.2
				C290.3,126.9,272.2,144.9,249.9,144.8L249.9,144.8z M249.9,70.8c-18.7,0.1-33.8,15.4-33.6,34.1s15.4,33.8,34.1,33.6
				c18.6-0.1,33.6-15.3,33.6-33.9C283.9,85.9,268.6,70.7,249.9,70.8z"/>
			<path class="st3" d="M489.4,329.4c-18.5,0-36.7-3.6-53.8-10.8c-33.1-13.9-59.4-40.1-73.6-73c-14.5-34.1-14.5-72.6,0-106.7
				c7-16.3,17.1-31.1,29.7-43.6s27.6-22.5,43.9-29.4c51.8-21.8,111.6-10.2,151.5,29.4l-3,3C559,73.4,525,59.5,489.6,59.6
				c-17.9,0-35.6,3.5-52.1,10.4c-15.8,6.6-30.2,16.2-42.4,28.3c-25,24.8-39.1,58.5-39,93.8c-0.1,35.2,14,69,39,93.8
				c25.1,24.9,59.1,38.9,94.5,38.7c17.8,0,35.5-3.5,52-10.4c15.8-6.6,30.3-16.2,42.5-28.3c25-24.8,39.1-58.5,39-93.8V190h59.1v4.2
				h-54.8c-0.2,17.6-3.9,35-10.9,51.2c-7,16.3-17.1,31.1-29.7,43.6c-12.7,12.5-27.6,22.5-44,29.4
				C526.1,325.7,507.8,329.5,489.4,329.4z"/>
			<path d="M668.2,209.6l-3-3l15.4-14.2L665.2,178l3-3l18.8,17.4L668.2,209.6z"/>
			
				<radialGradient id="SVGID_4_" cx="-529.3159" cy="952.2433" r="1" gradientTransform="matrix(56.99 0 0 -56.53 30744.7207 53943.0195)" gradientUnits="userSpaceOnUse">
				<stop  offset="0.18" style="stop-color:#000000"/>
				<stop  offset="0.24" style="stop-color:#242424"/>
				<stop  offset="0.36" style="stop-color:#5D5D5D"/>
				<stop  offset="0.48" style="stop-color:#8F8F8F"/>
				<stop  offset="0.59" style="stop-color:#B7B7B7"/>
				<stop  offset="0.7" style="stop-color:#D6D6D6"/>
				<stop  offset="0.81" style="stop-color:#EDEDED"/>
				<stop  offset="0.91" style="stop-color:#FAFAFA"/>
				<stop  offset="1" style="stop-color:#FFFFFF"/>
			</radialGradient>
			<path class="st7" d="M578.8,164.3c31.5,0,57-25.3,57-56.5s-25.5-56.5-57-56.5s-57,25.3-57,56.5S547.4,164.3,578.8,164.3z"/>
			<path class="st8" d="M622.4,110.5c3.4-20.3-10.3-39.6-30.6-43s-39.6,10.3-43,30.6s10.3,39.6,30.6,43c0.1,0,0.1,0,0.2,0
				c20.1,3.5,39.3-10,42.7-30.2C622.4,110.8,622.4,110.6,622.4,110.5z"/>
			<path class="st6" d="M585.6,144.8c-22.2-0.2-40.1-18.3-39.9-40.5c0.2-22.2,18.3-40.1,40.5-39.9c22.1,0.2,39.9,18.1,39.9,40.2
				C626.2,126.8,607.8,144.8,585.6,144.8z M585.6,70.8c-18.7,0.1-33.8,15.4-33.6,34.1c0.1,18.7,15.4,33.8,34.1,33.6
				c18.6-0.1,33.6-15.3,33.6-33.9C619.6,85.9,604.4,70.7,585.6,70.8z"/>
			<path class="st3" d="M825,329.4c-55.4,0.1-105.5-32.9-127.4-83.8c-14.5-34.1-14.5-72.6,0-106.7c7-16.3,17.1-31.1,29.7-43.6
				c12.7-12.5,27.6-22.5,43.9-29.4C823,44.1,882.8,55.7,922.7,95.3l-3,3c-25.1-24.9-59.1-38.9-94.5-38.8c-17.8,0-35.5,3.5-52,10.4
				c-15.8,6.6-30.3,16.3-42.5,28.3c-25,24.8-39.1,58.5-39,93.8c-0.1,35.2,14,69,39,93.8c25.1,24.9,59.1,38.9,94.5,38.8
				c17.9,0,35.6-3.5,52.1-10.4c15.8-6.7,30.2-16.3,42.5-28.4c25-24.8,39.1-58.5,39-93.8h4.3c0.1,18.3-3.6,36.5-10.8,53.3
				c-7,16.3-17.1,31.1-29.7,43.6c-12.7,12.5-27.6,22.5-44,29.4C861.6,325.7,843.4,329.5,825,329.4z"/>
			
				<radialGradient id="SVGID_5_" cx="-529.3259" cy="952.2455" r="1" gradientTransform="matrix(56.99 0 0 -56.54 31080.3613 53943.25)" gradientUnits="userSpaceOnUse">
				<stop  offset="0.18" style="stop-color:#000000"/>
				<stop  offset="0.24" style="stop-color:#242424"/>
				<stop  offset="0.36" style="stop-color:#5D5D5D"/>
				<stop  offset="0.48" style="stop-color:#8F8F8F"/>
				<stop  offset="0.59" style="stop-color:#B7B7B7"/>
				<stop  offset="0.7" style="stop-color:#D6D6D6"/>
				<stop  offset="0.81" style="stop-color:#EDEDED"/>
				<stop  offset="0.91" style="stop-color:#FAFAFA"/>
				<stop  offset="1" style="stop-color:#FFFFFF"/>
			</radialGradient>
			<path class="st9" d="M914.4,164.3c31.5,0,57-25.3,57-56.5s-25.5-56.5-57-56.5s-57,25.3-57,56.5S882.9,164.3,914.4,164.3z"/>
			<path class="st10" d="M958,110.5c3.4-20.3-10.3-39.6-30.7-43c-20.3-3.4-39.6,10.3-43,30.7s10.3,39.6,30.7,43c0.1,0,0.1,0,0.2,0
				c20.1,3.5,39.3-10.1,42.7-30.2C958,110.9,958,110.7,958,110.5z"/>
			<path class="st6" d="M921.2,144.8c-22.2-0.2-40.1-18.3-39.9-40.5c0.2-22.2,18.3-40.1,40.5-39.9c22.1,0.2,39.9,18.1,39.9,40.2
				C961.6,126.9,943.5,144.9,921.2,144.8L921.2,144.8z M921.2,70.8c-18.7,0.1-33.7,15.4-33.6,34.1c0.1,18.7,15.4,33.7,34.1,33.6
				c18.6-0.1,33.6-15.3,33.6-33.9C955.2,85.9,939.9,70.7,921.2,70.8z"/>
			<path class="st10" d="M817,125.5l5.5-5.5l2.1,2.3l10.7-10.4l1.7,1.7l0.6-4.2l0.2-0.2V109l0.4-3l-7.7,1.3l1.9,1.9l-7.9,7.8
				l-2.1-2.3l-6,5.7v-17.1h-3.2v25.6H839v-3.4L817,125.5L817,125.5z"/>
			<path class="st8" d="M469.3,106.5v20.3h30.3v-20.3H469.3z M484.4,117.1l-11.5-8.9h23L484.4,117.1z M480.4,116.5l-9.4,7.6v-14.6
				L480.4,116.5z M481.8,117.5l2.6,1.9l2.6-1.9l9.2,7.4h-23.5L481.8,117.5z M488.5,116.5l9.2-7v14.6L488.5,116.5z"/>
			<path class="st5" d="M157.2,125h-9.6c-0.6,0.1-1.1-0.4-1.2-1c-0.1-0.6,0.4-1.1,1-1.2c0.1,0,0.1,0,0.2,0h9.6c0.6,0,1,0.4,1.1,0.9
				v0.1C158.2,124.5,157.7,124.9,157.2,125z"/>
			<path class="st5" d="M155.5,128.6h-6c-0.6,0.1-1.1-0.4-1.2-1c-0.1-0.6,0.4-1.1,1-1.2c0.1,0,0.1,0,0.2,0h6c0.6,0,1,0.4,1.1,0.9
				c0,0,0,0,0,0.1C156.5,128.1,156,128.5,155.5,128.6z"/>
			<path class="st5" d="M157.4,120.1h-10c-0.5,0-0.8-0.4-0.9-0.9c-0.1-2.6-1.2-5.1-3.2-7c-2.8-2.5-4.5-5.9-4.5-9.5
				c0-7,6-12.7,13.4-12.7s13.4,5.7,13.4,12.7l0,0c0.1,3.6-1.6,7.1-4.5,9.5c-2.1,1.8-3.2,4.4-3.2,7
				C158.2,119.7,157.8,120.1,157.4,120.1z M148,118.5h8.5c0.2-2.8,1.6-5.4,3.8-7.2c4.8-4.2,5.1-11.3,0.7-15.8
				c-4.4-4.5-11.9-4.8-16.7-0.7c-2.4,2.1-3.8,5.1-3.8,8.2c0.1,3.1,1.5,6.1,3.8,8.2C146.5,113.2,147.8,115.7,148,118.5z"/>
			<path class="st5" d="M148.6,97.9c-3.4,1.9-4.6,6.1-2.8,9.5l0,0c0.2,0.5,0,1-0.4,1.3c-0.2,0-0.2,0.2-0.4,0.2
				c-0.3,0-0.7-0.2-0.9-0.4c-2.4-4.3-0.8-9.7,3.4-12.1c0.5-0.2,1,0,1.3,0.4C149.3,97.1,149.1,97.7,148.6,97.9z"/>
			<path class="st6" d="M242,116.5c-2.7,0.2-5.2-1-6.8-3.2c-3.1-5.1-3.1-11.5,0-16.5c3.2-3.8,8.8-4.2,12.6-1.1
				c0.4,0.3,0.7,0.7,1.1,1.1c3.1,5.1,3.1,11.5,0,16.5C247.2,115.4,244.6,116.6,242,116.5z M238.8,99.8c-1.4,3.4-1.4,7.2,0,10.6
				c1,1.8,3.2,2.4,4.9,1.5c0.6-0.3,1.1-0.8,1.5-1.5c1.4-3.4,1.4-7.2,0-10.6c-1-1.8-3.2-2.4-4.9-1.5
				C239.6,98.6,239.1,99.1,238.8,99.8z"/>
			<path class="st6" d="M253.3,94.2h9v22h-4.7V98.5h-4.3L253.3,94.2z"/>
			<path class="st6" d="M575,116.5c-2.7,0.2-5.2-1-6.8-3.2c-3.1-5.1-3.1-11.4,0-16.5c3.2-3.8,8.8-4.2,12.6-1.1
				c0.4,0.3,0.7,0.7,1.1,1.1c3.1,5.1,3.1,11.4,0,16.5C580.2,115.4,577.6,116.6,575,116.5z M571.8,99.8c-1.4,3.4-1.4,7.2,0,10.6
				c1,1.8,3.2,2.4,4.9,1.5c0.6-0.3,1.1-0.8,1.5-1.5c1.4-3.4,1.4-7.2,0-10.6c-1-1.8-3.2-2.4-4.9-1.5
				C572.6,98.6,572.1,99.1,571.8,99.8z"/>
			<path class="st6" d="M596.3,102.7c0.6-0.6,0.9-1.5,0.9-2.3c0-0.7-0.2-1.3-0.6-1.9c-0.5-0.5-1.2-0.7-1.9-0.6c-1.5,0-2.8,1.1-4.1,3
				l-4-2.3c0.9-1.4,2-2.7,3.4-3.6s3-1.3,4.7-1.3c1.9,0,3.7,0.7,5.1,1.9c2.2,2,2.8,5.4,1.3,8c-1,1.4-2,2.8-3.2,4l-3.8,4.2h8.7v4.4
				h-15.6v-3.6l6.4-6.6C594.6,105,595.5,103.9,596.3,102.7z"/>
			<path class="st6" d="M909.9,116.5c-2.7,0.2-5.2-1-6.8-3.2c-3.1-5.1-3.1-11.5,0-16.5c3.2-3.8,8.8-4.2,12.6-1.1
				c0.4,0.3,0.7,0.7,1.1,1.1c3.1,5.1,3.1,11.4,0,16.5C915.2,115.4,912.6,116.6,909.9,116.5z M906.5,99.8c-1.4,3.4-1.4,7.2,0,10.6
				c1,1.8,3.2,2.4,4.9,1.5c0.6-0.3,1.1-0.8,1.5-1.5c1.4-3.4,1.4-7.2,0-10.6c-0.6-1.2-1.8-2-3.2-1.9
				C908.4,97.9,907.2,98.6,906.5,99.8z"/>
			<path class="st6" d="M922.5,98.5v-4.3h13.4v3.4l-4.5,5.1c1.6,0.2,3,0.9,4,2.1c1,1.1,1.5,2.5,1.5,4c0,2.1-0.8,4.1-2.3,5.5
				c-1.7,1.3-3.8,2-6,1.9c-2.7-0.1-5.3-1-7.5-2.5l1.9-3.8c1.6,1.2,3.5,2,5.5,2.1c0.8,0,1.7-0.2,2.3-0.6c1.2-0.9,1.4-2.5,0.5-3.7
				c-0.2-0.2-0.3-0.4-0.5-0.5c-0.9-0.7-1.9-1-3-0.8c-1,0.1-2,0.3-3,0.6v-3.6l4.3-4.9L922.5,98.5z"/>
		</g>
	</g>
</g>
</svg>
